<svg width="26" height="24" viewBox="0 0 26 24" fill="none" xmlns="http://www.w3.org/2000/svg">
<g clip-path="url(#clip0_774_4077)">
<path d="M23.6861 5.58252C24.7945 6.21252 25.1686 7.12252 24.8086 8.31252C23.472 12.7375 22.1261 17.1583 20.7711 21.575C20.1061 23.75 18.6686 24.005 16.4786 24.005C12.1986 24.0067 7.91945 24.005 3.64112 24C2.65862 24 1.71112 23.345 1.02862 22.64C0.136121 21.7175 -0.183879 20.73 0.101121 19.4575C0.224454 18.9075 0.243621 18.355 0.158621 17.8C0.145693 17.7174 0.161576 17.6327 0.203621 17.56C1.07112 16.1 1.90862 14.8175 1.86612 13.1525C1.86445 13.0792 1.88529 13.0134 1.92862 12.955C2.83529 11.715 3.32612 10.3242 3.40112 8.78252C3.40445 8.69418 3.43529 8.61585 3.49362 8.54752C4.24362 7.67002 5.27362 5.84002 5.04612 4.58502C5.03112 4.50502 5.04612 4.43168 5.09112 4.36502C5.49112 3.77668 5.95529 2.90252 6.48362 1.74252C6.71362 1.23502 7.30362 1.01502 7.88362 1.01252C11.7636 1.00752 15.6428 1.00335 19.5211 1.00002C20.5795 0.99835 21.3095 1.12418 21.7111 1.37752C22.8536 2.09252 22.5636 3.48502 22.1961 4.71752C20.9261 8.96252 19.6411 13.205 18.3411 17.445C17.7286 19.45 17.3161 20.2225 15.0786 20.2175C10.7636 20.2108 6.43612 20.2108 2.09612 20.2175C2.03305 20.2177 1.97078 20.2316 1.91367 20.2583C1.85655 20.2851 1.80597 20.324 1.76548 20.3723C1.72499 20.4207 1.69556 20.4773 1.67926 20.5382C1.66296 20.5992 1.66018 20.6629 1.67112 20.725C1.86112 21.7775 2.78862 22.0325 3.79862 22.035C8.57362 22.0517 13.3036 22.0534 17.9886 22.04C18.2269 22.0391 18.4586 21.962 18.6498 21.8198C18.841 21.6776 18.9817 21.4779 19.0511 21.25C20.5095 16.44 21.9878 11.5775 23.4861 6.66252C23.5911 6.31752 23.5911 5.99752 23.5811 5.64752C23.5803 5.63486 23.583 5.62223 23.5888 5.61096C23.5946 5.59969 23.6033 5.59021 23.6141 5.58354C23.6249 5.57686 23.6373 5.57324 23.65 5.57306C23.6627 5.57288 23.6752 5.57615 23.6861 5.58252ZM8.62112 6.37002C8.57612 6.62668 8.68445 6.75502 8.94612 6.75502H18.1486C18.1916 6.75494 18.2341 6.74526 18.273 6.72667C18.3119 6.70808 18.3463 6.68104 18.3736 6.64752C18.7153 6.22418 18.922 5.73502 18.9936 5.18002C18.9989 5.13846 18.9954 5.09624 18.9831 5.05618C18.9708 5.01612 18.9502 4.97913 18.9225 4.94767C18.8948 4.91621 18.8608 4.89101 18.8226 4.87374C18.7844 4.85647 18.743 4.84753 18.7011 4.84752L9.51362 4.84502C9.45699 4.84502 9.40112 4.8581 9.35039 4.88325C9.29965 4.90841 9.25541 4.94494 9.22112 4.99002C8.91112 5.39835 8.71112 5.85835 8.62112 6.37002ZM7.36112 10.21C7.34593 10.2464 7.33993 10.2859 7.34365 10.3251C7.34736 10.3644 7.36068 10.4021 7.38242 10.435C7.40417 10.4678 7.43367 10.4948 7.46832 10.5136C7.50298 10.5323 7.54172 10.5423 7.58112 10.5425C10.5261 10.5475 13.5328 10.5475 16.6011 10.5425C17.4136 10.5425 17.7486 9.62002 17.7561 8.86002C17.7578 8.76335 17.7103 8.71502 17.6136 8.71502H8.15862C8.10602 8.7151 8.05463 8.73083 8.011 8.76022C7.96737 8.7896 7.93347 8.8313 7.91362 8.88002L7.36112 10.21Z" fill="#0A4B1E"/>
</g>
<defs>
<clipPath id="clip0_774_4077">
<rect width="26" height="24" fill="white"/>
</clipPath>
</defs>
</svg>
