<svg version="1" xmlns="http://www.w3.org/2000/svg" width="933.333" height="933.333" viewBox="0 0 700.000000 700.000000"><path d="M330 2.3c-.3.3-4.8.7-10 1-26.8 1.7-55.8 7.5-85.2 16.9-5.4 1.7-9.8 3.4-9.8 3.8 0 .3 4.1 4.4 9.1 9.1C253.9 51.3 262.2 59.3 282 79c17.3 17.3 33.8 34.5 41.7 43.6 1 1.2 5 5.7 9 10 13.1 14.5 12.2 12.8 10.6 18.7-1.5 6-3.6 2.5 17.2 29.2 17.1 21.9 31 41.1 45.3 62.4 12.5 18.6 17.6 24.5 22.8 26.7 10.3 4.3 18-2.3 22.5-19.2 1.6-6.2 2.1-11.2 2.2-23.9.2-21-.6-33.2-3.8-57-2.6-18.5-10-50.3-16.8-72-3.9-12.2-11.2-32.9-12.7-36-.5-1.1-3-7-5.6-13-2.5-6.1-7.8-17.4-11.6-25.3-6.6-13.5-6.9-14.5-5.3-16.2 1.7-1.9 1.7-1.9-14.5-3.7-5.5-.6-52.5-1.5-53-1zM530.9 54.7c-.1 2.1-.2 4.9-.4 6.3-.1 1.4-.5 7.4-.9 13.5-.4 6-.9 12.6-1.1 14.5-.2 1.9-.6 7.1-1 11.5-.6 8-.8 10.2-2.1 22.5-.3 3.6-.8 7.6-.9 9-.1 1.4-.5 5-.9 8s-.9 7.3-1.2 9.5c-.2 2.2-.7 5.1-.9 6.5-.3 1.4-.7 4.9-1 7.8-.3 3-1.2 9-2 13.5s-1.7 10.4-2.1 13.2c-.3 2.7-.8 5.3-1.1 5.7-.8 1.5 1.8.8 8.2-2.1 3.6-1.7 6.5-2.7 6.5-2.4 0 .3.6.1 1.3-.5.7-.6 9.8-4.5 20.3-8.6 30-11.8 61.4-20.6 82.4-23.1 8.2-1 11-1.6 11-2.3 0-.9-15.7-21.8-22.5-29.8-8.9-10.6-36.8-37.8-48-46.7-9.7-7.8-35.2-25.4-41.2-28.6-2.2-1.1-2.3-1-2.4 2.6zM86.2 118c-3.4 3.7-8.6 9.7-11.4 13.2-2.9 3.4-5.5 6.5-5.8 6.8-1 .9-13.5 18.4-17.1 24-3.1 4.7-5.8 9-12.6 20.5-12.2 20.3-28 59.2-34.1 84.1-3.8 15.1-3.9 13.6 1 13 7-.9 14-1.7 18.3-2.2 2.2-.2 8.1-.8 13-1.3 9.7-1.1 16-1.7 27-2.7 3.9-.3 8.4-.8 10-.9 1.7-.2 6.8-.6 11.5-1 4.7-.3 9.9-.8 11.5-1 2.7-.3 14.2-1.1 30-2 6.8-.4 32.5-1.4 49.3-2 9.9-.3 11.5-.1 13 1.5s4.5 1.9 29.2 2.5c15.1.3 30.4.8 34 1 12.5.6 37.2 2.4 43 3 23.2 2.6 40.1 2.7 44.8.2 10.1-5.5 9.3-17.7-2.3-32.7-6.2-8-19.7-20.4-32.5-29.8-3-2.3-6-4.5-6.6-5-2.3-2.1-28.4-19.2-36.4-23.9-19.8-11.8-49.2-26.5-70.5-35.3-27.3-11.3-68.2-24.8-91.3-30-4.1-1-5.8-1.9-7.1-4.1l-1.7-2.8-6.2 6.9z"/><path d="M634 162.7c-13.5 1.5-44.4 8.4-59.5 13.4-8.5 2.8-35.2 12.8-40.2 15-2.3 1.1-4.4 1.9-4.6 1.9-.3 0-2.6 1-5.3 2.2-2.7 1.2-5.1 2.3-5.4 2.4-6.9 1.9-7.3 2.4-8.9 11.4-3.6 20.3-14.2 63.4-21.2 86.3-6.4 20.8-6.2 30.8.7 35.4 6.4 4.2 19 1.1 32.6-8.1 10.6-7.1 16.4-12.1 31.8-27.6 15.2-15.3 17.8-18.2 29.5-33.5 20.1-26.3 36.2-53.6 48.8-82.5 6.1-14.1 7.2-17.1 6-16.8-.4 0-2.4.3-4.3.5zM684.9 277.1c-20.7 18-49.1 39.5-76.6 58l-19.5 13.1 3.3 2c1.9 1.2 6.3 3.7 9.9 5.6 7.2 3.8 30 18.1 30 18.7 0 .2-5.1-2.2-11.2-5.3-6.2-3.2-16.6-8.1-23-11l-11.7-5.2-15.3 7.4c-23.8 11.5-38.2 17.6-65.2 27.7-20.4 7.7-25.4 10.1-29.3 14.1-12 12.4 5 26.1 38.7 31.3 23.7 3.6 29.5 4 58 4 22.7 0 32.6-.4 48-2 13.4-1.4 36.3-5.6 52.5-9.6 6.6-1.7 12.9-3.2 14-3.3 1.1-.1 3-.8 4.2-1.4 1.2-.7 3-1.2 3.9-1.2 1.4 0 1.1-.7-1.4-3.3-2.2-2.3-3-4-2.7-5.7 3.2-20.3 3.9-84.8 1-99.8-.1-1-.6-4.9-1-8.7-.3-3.9-.8-8.6-1.1-10.5-1.4-9.5-2.5-16.5-2.8-16.7-.2-.2-1.4.6-2.7 1.8zM250 328.7c-15.3 1.7-59.6 13.1-79 20.3-4.7 1.8-9.2 3.3-10 3.5-1.3.3-15.3 5.9-21.5 8.6-23.9 10.4-51.9 24.1-63.2 30.9-3.6 2.2-6.7 4-7 4-3 0-65.1 42-66 44.6-.2.5 2.7 1.5 6.4 2.2 13.8 2.5 22.9 4.1 26.8 4.7 7.9 1.2 25.1 3.4 31.5 4 3.6.3 8.1.8 10 1 12.3 1.4 30.1 2 63.5 2 46.5 0 57.3-.6 59.1-3 1.4-1.9 8-9.7 13.5-15.9 25.7-29.1 28.3-31.8 54.4-58.3 25.6-26 28.5-30.7 24.3-39.2-1.5-3.2-3.2-4.6-7.6-6.8-5.2-2.5-6.8-2.7-18.7-2.8-7.1-.1-14.6 0-16.5.2zM305.2 427c-5.6 2.5-13.9 11-19.8 20-5.3 8.3-14.4 27.1-19.8 41-2 5.2-4.1 10.4-4.6 11.5-1.6 3.5-8.8 26.7-11.3 36.5-5.3 20.1-9.9 42.9-11.3 55-.2 1.9-.8 6.4-1.3 10-.6 3.6-1.3 9.4-1.6 13-.3 3.6-.8 9.2-1.1 12.5-.8 8.5-1.1 54.9-.5 61.9l.6 5.9 4.5-3.7c2.5-2.1 5.3-4.4 6.3-5.2 1.5-1.3 2.7-1.3 6.5-.4 2.6.6 5.8 1.3 7.2 1.6 1.4.3 3 .7 3.5.8.6.2 2.8.6 5 1s8.3 1.6 13.6 2.6c5.2 1 11.6 2.1 14.2 2.4 2.6.3 7.9 1.1 11.9 1.7 12.8 1.8 24.8 2.4 48.3 2.4 20.5 0 40.8-1 42.4-1.9.3-.2 3.3-.7 6.6-1.1 6.8-.8 8-1.2 6.7-2.8-.8-1-6.9-14.5-12.8-28.5-2.2-5-3.9-9.1-7.2-16.7-5-11.8-11.2-27.1-11.2-27.9 0-.4-.6-2.2-1.4-3.9-2-4.5-7.7-20.5-13.9-39.1l-5.3-15.9-6.3 7.6c-3.4 4.3-6.5 7.7-6.8 7.7-.4 0 .3-1 1.4-2.2 1.1-1.3 3-3.8 4.2-5.6l2.3-3.2-4.2-16.8c-2.3-9.2-4.4-17.8-4.7-19.2-.2-1.3-1.2-6-2.3-10.5-3.1-13.4-7.8-38-11-58-2.3-14.1-3.8-20.4-5.8-24.5-4.6-9.5-11.8-12.2-21-8z"/><path d="M6.5 448.2C6.9 450 9 456.7 11 463c14.2 43.5 36.6 83.8 65.9 118.5 8.1 9.6 25 27.5 26 27.5.4 0 4.4-6.4 9.1-14.3 19.1-32.3 41.8-67.7 59.4-92.5 5.5-7.9 10.8-15.4 11.6-16.5 1.8-2.6 17.8-24.7 19.3-26.5.8-1-1.8-1.2-14.4-.5-28 1.3-76.5.8-98.9-1.1-10.9-1-19.4-1.8-21.3-2.1-1.2-.2-6-.9-10.7-1.5-4.7-.6-9.7-1.3-11.2-1.6-1.6-.2-4.3-.6-6-.9-1.8-.3-4.4-.7-5.8-1-1.4-.3-4.1-.7-6-1-1.9-.3-6.3-1.2-9.8-2-12.8-3-12.5-3-11.7.7zM400.1 457.2c-16.2 8-6.9 44.1 23.7 91.3 21.8 33.8 53.4 68.3 84.2 91.8 10 7.7 16.1 11.7 17 11.2 1.1-.7.8-50.6-.4-60-.3-2.2-.8-6.7-1.1-10-.3-3.3-.8-7.4-1-9-.2-1.7-.9-6.6-1.5-11-2.1-15.4-9.6-53.5-10.8-54.6-.4-.4-5.6-2.8-11.7-5.4-14.2-6-47-22.9-65.5-33.6-16.8-9.8-18.9-10.8-24.7-11.8-3.4-.7-5.1-.4-8.2 1.1zM526.5 506.9c.3 1.9 1.2 6 2 9.1.8 3 1.7 7.1 2 9 .3 1.9 1 4.8 1.5 6.5.4 1.6 1.5 7 2.4 12 .8 4.9 1.8 10.3 2.1 12 .5 2.9 3 21.8 3.9 30 1.4 11.4 2 26.1 2 45.2-.1 24.4-1.3 22.8 10.6 14.4 38.1-26.7 67.3-55.9 91.5-91.5 4.1-6 7.3-11.1 7.1-11.4-.4-.3-5-1.6-10.2-2.7-15.8-3.5-67.3-18.3-74.9-21.5-1.1-.5-10.7-4-21.3-7.8l-19.3-6.9.6 3.6z"/></svg>