<svg width="16" height="16" viewBox="4 -0.2 24 24" fill="none" xmlns="http://www.w3.org/2000/svg">
  <g clip-path="url(#clip0_19054_5050)" transform="rotate(45 12 12)">
    <path fill-rule="evenodd" clip-rule="evenodd" d="M23.8536 0.146461C23.9894 0.28228 24.0354 0.483896 23.9719 0.665189L15.9219 23.6652C15.8542 23.8587 15.6752 23.9912 15.4704 23.9996C15.2655 24.008 15.0764 23.8904 14.9931 23.7031L10.4712 13.5288L0.296933 9.00692C0.109593 8.92366 -0.00793876 8.73447 0.000418142 8.52963C0.00877504 8.32479 0.141327 8.14581 0.334827 8.07808L23.3348 0.0280848C23.5161 -0.035368 23.7177 0.0106416 23.8536 0.146461ZM11.4464 13.2607L15.3947 22.1445L22.3043 2.40286L11.4464 13.2607ZM21.5972 1.69575L1.85554 8.60532L10.7393 12.5536L21.5972 1.69575Z" fill="#33820D"/>
  </g>
  <defs>
    <clipPath id="clip0_19054_5050">
      <rect width="24" height="24" fill="white"/>
    </clipPath>
  </defs>
</svg>