<svg width="34" height="33" viewBox="0 0 34 33" fill="none" xmlns="http://www.w3.org/2000/svg">
<path d="M12.7023 14.5767C12.7171 14.5637 12.8718 14.4318 13.1181 14.3303C12.9939 14.4678 12.9181 14.6514 12.9181 14.8534C12.9181 15.2778 13.2521 15.6219 13.664 15.6219C14.0758 15.6219 14.4099 15.2778 14.4099 14.8534C14.4099 14.6302 14.3173 14.43 14.1704 14.2897C14.3399 14.3479 14.5173 14.4401 14.6986 14.5813C14.7242 14.6016 14.7547 14.6108 14.7863 14.6108C14.8247 14.6108 14.8641 14.5951 14.8907 14.5656C14.939 14.5121 14.9311 14.4318 14.874 14.3875C13.6403 13.4262 12.5279 14.3829 12.517 14.3931C12.4628 14.441 12.4599 14.5213 12.5121 14.572C12.5633 14.6228 12.6501 14.6255 12.7042 14.5776L12.7023 14.5767Z" fill="#33820D"/>
<path d="M19.145 14.3936C19.0908 14.4416 19.0878 14.5218 19.14 14.5726C19.1913 14.6233 19.278 14.6261 19.3322 14.5781C19.347 14.5652 19.5017 14.4333 19.748 14.3318C19.6238 14.4693 19.548 14.6528 19.548 14.8549C19.548 15.2792 19.882 15.6233 20.2939 15.6233C20.7057 15.6233 21.0398 15.2792 21.0398 14.8549C21.0398 14.6316 20.9472 14.4314 20.8003 14.2912C20.9698 14.3493 21.1472 14.4416 21.3285 14.5827C21.3541 14.603 21.3846 14.6122 21.4162 14.6122C21.4546 14.6122 21.494 14.5966 21.5206 14.567C21.5689 14.5135 21.561 14.4333 21.5039 14.389C20.2702 13.4277 19.1578 14.3844 19.1469 14.3945L19.145 14.3936Z" fill="#33820D"/>
<path d="M16.8073 21.1217H17.0704C18.445 21.1217 19.5584 20.249 19.5584 19.1724C19.5584 18.8965 19.2727 18.6724 18.9209 18.6724H14.9569C14.6041 18.6724 14.3193 18.8965 14.3193 19.1724C14.3193 20.249 15.4338 21.1217 16.8073 21.1217ZM17.03 20.7748H16.7669C16.156 20.7748 15.5963 20.6014 15.1628 20.3154C15.5688 20.1733 16.1954 20.0811 16.898 20.0811C17.6005 20.0811 18.2272 20.1724 18.6332 20.3154C18.1996 20.6023 17.6409 20.7748 17.029 20.7748H17.03ZM15.216 18.9344H18.6657C18.9573 18.9344 19.1958 19.0903 19.2185 19.2877C18.9682 19.5137 18.6095 19.6503 18.2223 19.6503H15.6328C15.2544 19.6503 14.9056 19.5165 14.6622 19.296C14.679 19.0949 14.9204 18.9344 15.216 18.9344Z" fill="#33820D"/>
<path d="M17 1C8.17724 1 1 7.71976 1 15.9801C1 21.2377 3.90775 25.8707 8.29647 28.5442C8.43343 28.6272 8.57039 28.7093 8.71031 28.7886C9.96859 29.5045 11.3392 30.0627 12.7926 30.4335C13.5454 30.6254 14.3199 30.7675 15.1121 30.8551C15.7319 30.9234 16.3615 30.9603 17 30.9603C17.6385 30.9603 18.2691 30.9243 18.8879 30.8551C19.6801 30.7675 20.4546 30.6254 21.2074 30.4335C22.6115 30.0747 23.9388 29.5414 25.1626 28.8597C25.3025 28.7813 25.4424 28.7019 25.5794 28.6198C30.0371 25.9583 33 21.2875 33 15.9801C33.001 7.71976 25.8228 1 17 1ZM18.4672 30.4344H15.5338C13.0842 30.2186 10.7992 29.4667 8.81278 28.3052C9.07193 27.2794 9.65033 26.1631 10.9086 25.545C12.8734 24.58 13.8883 24.1511 14.3475 23.973C14.3721 23.9638 14.3957 23.9545 14.4174 23.9462C14.4292 23.9416 14.442 23.9398 14.4539 23.9398C14.4795 23.9398 14.5051 23.9499 14.5238 23.9684C14.5889 24.033 14.6825 24.1178 14.8007 24.2092C15.1574 24.485 15.7535 24.8263 16.5842 24.9112H17.2808C18.1203 24.8254 18.7214 24.4749 19.0761 24.1972C19.1875 24.1105 19.2752 24.0302 19.3382 23.9684C19.3658 23.9407 19.4082 23.9324 19.4446 23.9462C19.4703 23.9564 19.4988 23.9675 19.5294 23.9795C19.9954 24.1621 21.0103 24.592 22.9534 25.5459C24.2413 26.1779 24.8167 27.332 25.067 28.3772C23.1091 29.4981 20.8665 30.2232 18.4672 30.4354V30.4344ZM11.0604 10.7383C10.9549 10.8038 10.8544 10.8914 10.7569 11.0169C10.4544 11.4062 10.1864 12.1608 9.93608 13.7467C8.76943 9.87019 10.2248 9.17921 10.2543 9.16629C10.3292 9.13585 10.3815 9.07035 10.3903 8.9947C10.7184 6.09425 13.3188 5.19846 14.2785 4.96598C14.2272 5.18186 14.1809 5.45124 14.2135 5.63298C14.2243 5.69663 14.2676 5.75291 14.3287 5.78427C14.3908 5.81564 14.4637 5.81841 14.5288 5.79258C17.0443 4.7907 19.5057 5.00012 20.4684 5.14127C20.2506 5.35345 20.0211 5.63113 20.0181 5.859C20.0171 5.97432 20.1157 6.06934 20.2408 6.0721C22.2834 6.11915 23.2628 7.34521 23.6215 7.9467C23.4875 7.94854 23.322 7.96054 23.12 7.99006C23.0342 8.00297 22.9643 8.05925 22.9387 8.13582C22.913 8.21239 22.9367 8.29634 22.9998 8.35077C24.0137 9.24102 24.3901 10.5759 24.5182 11.2189C24.3457 11.1488 24.127 11.0621 23.8866 10.9763C23.8117 10.9496 23.726 10.9606 23.6629 11.0068C23.5998 11.0529 23.5673 11.1267 23.5781 11.2005C23.7279 12.231 23.7102 13.1489 23.654 13.8159C23.5969 13.6471 23.5289 13.4542 23.4481 13.2374C23.3564 12.9902 23.2471 12.7125 23.118 12.397C23.0333 12.1894 22.9268 12.0031 22.8047 11.8361C21.9366 10.6562 20.2112 10.4532 18.7372 10.4532C18.3036 10.4532 17.8917 10.4708 17.5301 10.4864C17.4434 10.4901 17.3656 10.539 17.3311 10.6138C17.2966 10.6876 17.3104 10.7734 17.3675 10.8342C17.6001 11.0852 17.6188 11.2143 17.5942 11.2512C17.5715 11.2844 17.3143 11.5658 15.2865 11.2826C14.111 11.1184 12.8872 10.8416 12.4044 10.7189C12.0132 10.6193 11.6112 10.5169 11.2436 10.6497L11.2082 11.0104C11.2082 11.0197 11.2052 11.0289 11.2032 11.0381C11.2013 11.0446 11.1865 11.1082 11.1628 11.2208C11.2121 11.1645 11.2623 11.1193 11.3146 11.087C11.5373 10.9486 11.8279 11.0086 12.2812 11.1248C12.7729 11.2503 14.0193 11.5326 15.2165 11.6996C17.3252 11.9939 17.7991 11.7356 17.9765 11.4772C18.0898 11.313 18.0839 11.1165 17.9597 10.8905C19.6161 10.8305 22.0006 10.8647 22.6894 12.5455C22.7702 12.743 22.8421 12.9238 22.9071 13.0926C22.6145 12.9893 22.2154 12.8869 21.6794 12.8186C20.6182 11.7475 19.0978 12.4478 18.6199 12.7125C18.5963 12.7217 18.5736 12.7347 18.5539 12.7513C18.5233 12.7753 18.5007 12.8048 18.4839 12.8361C17.8366 12.9201 17.4414 13.0492 17.2138 13.1959H16.665C16.4374 13.0483 16.0403 12.9192 15.3899 12.8352C15.3732 12.8039 15.3505 12.7743 15.32 12.7503C15.2993 12.7337 15.2766 12.7208 15.254 12.7116C14.7761 12.4468 13.2557 11.7466 12.1945 12.8186C11.5944 12.8961 11.1648 13.016 10.8662 13.1314C10.9628 12.231 11.0958 11.5344 11.1618 11.2208C10.9973 11.4099 10.8505 11.7346 10.7145 12.2134C10.8505 11.7356 10.9973 11.4099 11.1618 11.2208C11.1855 11.1082 11.2003 11.0446 11.2022 11.0381C11.2042 11.0289 11.2062 11.0197 11.2072 11.0104L11.2426 10.6497C11.1806 10.6719 11.1195 10.7005 11.0604 10.7374V10.7383ZM10.4435 17.2136C10.3864 17.2357 10.3253 17.2514 10.2612 17.2551L10.0405 17.2689C9.88582 17.2791 9.73704 17.2311 9.62077 17.1361C9.50449 17.0411 9.43454 16.9101 9.42468 16.7661L9.31826 15.2504C9.29954 14.982 9.49661 14.7467 9.77054 14.6895C9.78433 14.7273 9.79616 14.7633 9.80995 14.8021C9.84345 14.8962 9.94297 14.9552 10.0494 14.9451C10.1558 14.9349 10.2396 14.8583 10.2524 14.7606C10.2553 14.7338 10.2593 14.7089 10.2622 14.6831C10.278 14.6868 10.2928 14.6895 10.3085 14.6941C10.2869 15.494 10.3184 16.3565 10.4435 17.2136ZM10.3194 14.2605C10.3223 14.2412 10.3243 14.2209 10.3273 14.2024C10.3273 14.1987 10.3273 14.1941 10.3273 14.1904C10.3273 14.1941 10.3273 14.1978 10.3273 14.2015C10.3263 14.2209 10.3253 14.2412 10.3243 14.2605C10.3223 14.2605 10.3204 14.2605 10.3194 14.2605ZM10.342 13.9644C10.342 13.9644 10.342 13.9607 10.342 13.9589C10.342 13.9607 10.342 13.9626 10.342 13.9644ZM10.3834 13.4395C10.3834 13.4395 10.3834 13.4367 10.3834 13.4349C10.3834 13.4367 10.3834 13.4376 10.3834 13.4395ZM23.5476 15.112C23.585 15.1499 23.6363 15.1757 23.6954 15.1812C23.7033 15.1812 23.7102 15.1822 23.7171 15.1822C23.8225 15.1822 23.9161 15.1139 23.9398 15.017C23.9437 15.0004 23.9703 14.8851 24.0038 14.6904C24.2738 14.7504 24.4669 14.9838 24.4482 15.2495L24.3418 16.7652C24.3319 16.9091 24.262 17.0401 24.1457 17.1352C24.0294 17.2302 23.8806 17.2772 23.726 17.268L23.5042 17.2542C23.4698 17.2523 23.4363 17.2459 23.4028 17.2385C23.5092 16.5208 23.5496 15.7984 23.5476 15.112ZM23.4333 14.6849C23.4333 14.6849 23.4353 14.6941 23.4363 14.6978C23.4363 14.6978 23.4363 14.6987 23.4363 14.6997C23.4353 14.6951 23.4333 14.6895 23.4323 14.6849H23.4333ZM23.3909 14.5188C23.388 14.5096 23.386 14.5013 23.384 14.4921C23.387 14.5013 23.389 14.5096 23.3909 14.5188ZM23.384 14.4912C23.384 14.4912 23.3831 14.4875 23.3831 14.4856C23.3831 14.4866 23.3831 14.4884 23.384 14.4893C23.384 14.4893 23.384 14.4893 23.384 14.4902V14.4912ZM21.9326 13.1231C22.4972 13.2743 22.9692 13.5603 22.9061 14.0963C22.7583 15.3584 22.3632 16.696 20.358 16.7209C20.3393 16.7209 20.3206 16.7209 20.3029 16.72C20.2841 16.72 20.2664 16.7209 20.2477 16.7209C18.2415 16.696 17.8474 15.3584 17.6996 14.0963C17.6405 13.5935 18.0523 13.3112 18.5697 13.1526C18.6337 13.1959 18.7441 13.2338 18.8948 13.1498C18.9618 13.112 19.0426 13.0705 19.1333 13.028C19.6397 12.9515 20.1265 12.9524 20.3029 12.9561C20.43 12.9533 20.7167 12.9524 21.0547 12.9801C21.2025 13.0769 21.3434 13.2088 21.4695 13.3851C21.5217 13.4579 21.6084 13.4976 21.6961 13.4976C21.7484 13.4976 21.8006 13.4838 21.8469 13.4552C21.9651 13.3814 22.0006 13.2374 21.9326 13.1231ZM12.0299 13.4552C12.0762 13.4838 12.1285 13.4976 12.1807 13.4976C12.2684 13.4976 12.3551 13.4579 12.4073 13.3851C12.5334 13.2098 12.6734 13.0778 12.8212 12.981C13.1621 12.9524 13.4508 12.9542 13.5779 12.957C13.7533 12.9533 14.2371 12.9515 14.7406 13.028C14.8322 13.0705 14.913 13.1129 14.981 13.1507C15.1328 13.2356 15.2441 13.1959 15.3082 13.1526C15.8265 13.3103 16.2403 13.5935 16.1812 14.0972C16.0334 15.3593 15.6383 16.697 13.6331 16.7219C13.6144 16.7219 13.5956 16.7219 13.5779 16.7209C13.5592 16.7209 13.5414 16.7219 13.5227 16.7219C11.5166 16.697 11.1224 15.3593 10.9746 14.0972C10.9125 13.5631 11.3806 13.278 11.9422 13.1258C11.8762 13.2393 11.9117 13.3832 12.0289 13.4561L12.0299 13.4552ZM10.7598 14.7808C10.7726 14.815 10.7845 14.85 10.7953 14.8888C11.1579 15.9728 11.3865 17.0817 13.8449 17.0051C16.2078 16.9313 16.4728 14.47 16.4906 14.2771C16.527 14.2633 16.5931 14.2393 16.6739 14.2199C16.6335 14.7781 16.5172 15.6314 16.1891 16.1849C15.9151 16.6481 15.9821 17.1416 16.3615 17.4433C16.53 17.5771 16.7625 17.6647 17.0236 17.6647C17.269 17.6647 17.539 17.5872 17.8021 17.3962C17.8612 17.3529 17.872 17.2735 17.8257 17.2191C17.7794 17.1638 17.6937 17.1536 17.6346 17.197C17.1843 17.5226 16.7625 17.4295 16.5379 17.2514C16.261 17.0318 16.2176 16.661 16.4265 16.3086C16.7931 15.6895 16.9113 14.7633 16.9497 14.1858C17.1222 14.1858 17.2966 14.2356 17.3892 14.267C17.3912 14.2947 17.5902 16.9304 20.0358 17.0069C22.4943 17.0835 22.7229 15.9746 23.0855 14.8906C23.0874 14.8851 23.0894 14.8805 23.0904 14.8749C23.0904 14.9331 23.0934 14.9912 23.0934 15.0502C23.0973 15.6471 23.0697 16.2717 22.9938 16.8944C22.98 17.0042 22.9653 17.1139 22.9485 17.2237C22.9357 17.3077 22.9219 17.3916 22.9071 17.4756C22.6953 18.6924 22.2765 19.8668 21.5168 20.7773C20.9877 21.412 20.3216 21.8761 19.5274 22.1722C19.3806 22.2276 19.2298 22.2774 19.0741 22.3207C18.4918 22.4822 17.8494 22.5624 17.1468 22.5606C17.0729 22.5606 17.001 22.5588 16.93 22.556C16.9271 22.556 16.9251 22.556 16.9222 22.556C16.9192 22.556 16.9172 22.556 16.9143 22.556C16.8433 22.5588 16.7714 22.5597 16.6975 22.5606C16.6847 22.5606 16.6719 22.5606 16.6581 22.5606C15.9812 22.5606 15.3614 22.4822 14.7968 22.3281C14.6411 22.2857 14.4903 22.2377 14.3435 22.1833C13.5385 21.8871 12.8635 21.4185 12.3275 20.7764C11.556 19.8511 11.1352 18.6537 10.9273 17.4165C10.9116 17.3243 10.8968 17.232 10.884 17.1398C10.7697 16.3418 10.7391 15.5355 10.7559 14.7808H10.7598ZM19.0761 22.7589V23.6206C19.0515 23.6381 19.0288 23.6566 19.0071 23.6778C18.7598 23.9241 18.0612 24.497 16.933 24.5081C15.8008 24.497 15.1022 23.9232 14.8539 23.6778C14.8372 23.6612 14.8184 23.6455 14.7997 23.6317V22.7636C15.3811 22.9093 16.0156 22.9831 16.7024 22.9813C16.7783 22.9813 16.8522 22.9794 16.9241 22.9767C16.997 22.9785 17.0709 22.9804 17.1458 22.9813C17.1596 22.9813 17.1734 22.9813 17.1872 22.9813C17.8691 22.9813 18.4977 22.9056 19.0751 22.7589H19.0761ZM25.471 28.1355C25.1793 27.0377 24.5389 25.8458 23.1653 25.1714C21.0783 24.1464 20.0467 23.7184 19.6171 23.5551C19.5885 23.544 19.5589 23.5357 19.5294 23.5293V22.6252C20.4655 22.3069 21.2468 21.7783 21.8627 21.0384C22.6549 20.0882 23.1012 18.8907 23.3318 17.6555C23.3781 17.6647 23.4254 17.6712 23.4737 17.6739L23.6954 17.6878C23.7181 17.6896 23.7417 17.6896 23.7644 17.6896C24.0147 17.6896 24.2541 17.6066 24.4443 17.4507C24.6512 17.2818 24.7753 17.0475 24.7941 16.7911L24.9005 15.2753C24.935 14.7873 24.5684 14.3602 24.0649 14.2698C24.1428 13.6406 24.2058 12.6581 24.0738 11.5003C24.4384 11.6424 24.6995 11.7586 24.7034 11.7605C24.7773 11.7937 24.865 11.7872 24.932 11.7448C25 11.7014 25.0365 11.6285 25.0296 11.5529C25.0217 11.4708 24.8414 9.67646 23.6402 8.36645C23.6442 8.36645 23.6471 8.36645 23.6511 8.36645C23.8343 8.36645 23.9122 8.39044 23.9082 8.38952C23.992 8.42365 24.0895 8.40797 24.1565 8.35077C24.2235 8.29265 24.2462 8.20316 24.2147 8.12383C24.2058 8.10076 23.2944 5.8959 20.5827 5.66619C20.698 5.52043 20.8911 5.33039 21.0951 5.16986C21.1601 5.1182 21.1887 5.03794 21.169 4.96137C21.1493 4.8848 21.0852 4.82391 21.0025 4.80454C20.8734 4.77502 17.9085 4.11079 14.6775 5.2778C14.7071 5.09514 14.7643 4.88296 14.8096 4.7455C14.8322 4.67631 14.8145 4.60066 14.7633 4.54623C14.712 4.4918 14.6332 4.46505 14.5554 4.47612C14.514 4.48258 10.4455 5.12097 9.94888 8.84248C9.52913 9.10448 8.30336 10.254 9.63161 14.2845C9.16357 14.3998 8.83151 14.8104 8.86501 15.2762L8.97142 16.792C8.98916 17.0484 9.11331 17.2818 9.32122 17.4516C9.51139 17.6066 9.74984 17.6905 10.0011 17.6905C10.0238 17.6905 10.0474 17.6905 10.0701 17.6887L10.2908 17.6748C10.3677 17.6702 10.4416 17.6573 10.5145 17.6379C10.745 18.8797 11.1914 20.0845 11.9866 21.0393C12.6083 21.7857 13.3996 22.317 14.3465 22.6335V23.5274C14.312 23.5339 14.2775 23.5422 14.244 23.5551C13.8144 23.7193 12.7837 24.1464 10.6958 25.1714C9.35275 25.831 8.71031 26.9851 8.40978 28.0626C4.24375 25.4574 1.49267 21.0144 1.49267 15.9801C1.49267 7.97438 8.44919 1.46127 17 1.46127C25.5508 1.46127 32.5073 7.97438 32.5073 15.9801C32.5073 21.0615 29.704 25.5404 25.471 28.1355Z" fill="#33820D"/>
<path d="M11.1618 11.2208C11.0958 11.5344 10.9628 12.231 10.8662 13.1314C11.1648 13.016 11.5944 12.8961 12.1945 12.8186C13.2557 11.7466 14.7761 12.4468 15.254 12.7116C15.2766 12.7208 15.2993 12.7337 15.32 12.7503C15.3505 12.7743 15.3732 12.8039 15.3899 12.8352C16.0403 12.9192 16.4374 13.0483 16.665 13.1959H17.2138C17.4414 13.0492 17.8366 12.9201 18.4839 12.8361C18.5007 12.8048 18.5233 12.7753 18.5539 12.7513C18.5736 12.7347 18.5963 12.7217 18.6199 12.7125C19.0978 12.4478 20.6182 11.7475 21.6794 12.8186C22.2154 12.8869 22.6145 12.9893 22.9071 13.0926C22.8421 12.9238 22.7702 12.743 22.6894 12.5455C22.0006 10.8647 19.6161 10.8305 17.9597 10.8905C18.0839 11.1165 18.0898 11.313 17.9765 11.4772C17.7991 11.7356 17.3252 11.9939 15.2165 11.6996C14.0193 11.5326 12.7729 11.2503 12.2812 11.1248C11.8279 11.0086 11.5373 10.9486 11.3146 11.087C11.2623 11.1193 11.2121 11.1645 11.1628 11.2208C11.1865 11.1082 11.2013 11.0446 11.2032 11.0381C11.2052 11.0289 11.2082 11.0197 11.2082 11.0104L11.2436 10.6497C11.6112 10.5169 12.0132 10.6193 12.4044 10.7189C12.8872 10.8416 14.111 11.1184 15.2865 11.2826C17.3143 11.5658 17.5715 11.2844 17.5942 11.2512C17.6188 11.2143 17.6001 11.0852 17.3675 10.8342C17.3104 10.7734 17.2966 10.6876 17.3311 10.6138C17.3656 10.539 17.4434 10.4901 17.5301 10.4864C17.8917 10.4708 18.3036 10.4532 18.7372 10.4532C20.2112 10.4532 21.9366 10.6562 22.8047 11.8361C22.9268 12.0031 23.0333 12.1894 23.118 12.397C23.2471 12.7125 23.3564 12.9902 23.4481 13.2374C23.5289 13.4542 23.5969 13.6471 23.654 13.8159C23.7102 13.1489 23.7279 12.231 23.5781 11.2005C23.5673 11.1267 23.5998 11.0529 23.6629 11.0068C23.726 10.9606 23.8117 10.9496 23.8866 10.9763C24.127 11.0621 24.3457 11.1488 24.5182 11.2189C24.3901 10.5759 24.0137 9.24102 22.9998 8.35077C22.9367 8.29634 22.913 8.21239 22.9387 8.13582C22.9643 8.05925 23.0342 8.00297 23.12 7.99006C23.322 7.96054 23.4875 7.94854 23.6215 7.9467C23.2628 7.34521 22.2834 6.11915 20.2408 6.0721C20.1157 6.06934 20.0171 5.97432 20.0181 5.859C20.0211 5.63113 20.2506 5.35345 20.4684 5.14127C19.5057 5.00012 17.0443 4.7907 14.5288 5.79258C14.4637 5.81841 14.3908 5.81564 14.3287 5.78427C14.2676 5.75291 14.2243 5.69663 14.2135 5.63298C14.1809 5.45124 14.2272 5.18186 14.2785 4.96598C13.3188 5.19846 10.7184 6.09425 10.3903 8.9947C10.3815 9.07035 10.3292 9.13585 10.2543 9.16629C10.2248 9.17921 8.76943 9.87019 9.93608 13.7467C10.1864 12.1608 10.4544 11.4062 10.7569 11.0169C10.8544 10.8914 10.9549 10.8038 11.0604 10.7383V10.7374C11.1195 10.7005 11.1806 10.6719 11.2426 10.6497L11.2072 11.0104C11.2062 11.0197 11.2042 11.0289 11.2022 11.0381C11.2003 11.0446 11.1855 11.1082 11.1618 11.2208ZM11.1618 11.2208C10.9973 11.4099 10.8505 11.7346 10.7145 12.2134C10.8505 11.7356 10.9973 11.4099 11.1618 11.2208ZM17 1C8.17724 1 1 7.71976 1 15.9801C1 21.2377 3.90775 25.8707 8.29647 28.5442C8.43343 28.6272 8.57039 28.7093 8.71031 28.7886C9.96859 29.5045 11.3392 30.0627 12.7926 30.4335C13.5454 30.6254 14.3199 30.7675 15.1121 30.8551C15.7319 30.9234 16.3615 30.9603 17 30.9603C17.6385 30.9603 18.2691 30.9243 18.8879 30.8551C19.6801 30.7675 20.4546 30.6254 21.2074 30.4335C22.6115 30.0747 23.9388 29.5414 25.1626 28.8597C25.3025 28.7813 25.4424 28.7019 25.5794 28.6198C30.0371 25.9583 33 21.2875 33 15.9801C33.001 7.71976 25.8228 1 17 1ZM18.4672 30.4344H15.5338C13.0842 30.2186 10.7992 29.4667 8.81278 28.3052C9.07193 27.2794 9.65033 26.1631 10.9086 25.545C12.8734 24.58 13.8883 24.1511 14.3475 23.973C14.3721 23.9638 14.3957 23.9546 14.4174 23.9462C14.4292 23.9416 14.442 23.9398 14.4539 23.9398C14.4795 23.9398 14.5051 23.9499 14.5238 23.9684C14.5889 24.033 14.6825 24.1178 14.8007 24.2092C15.1574 24.485 15.7535 24.8263 16.5842 24.9112H17.2808C18.1203 24.8254 18.7214 24.4749 19.0761 24.1972C19.1875 24.1105 19.2752 24.0302 19.3382 23.9684C19.3658 23.9407 19.4082 23.9324 19.4446 23.9462C19.4703 23.9564 19.4988 23.9675 19.5294 23.9795C19.9954 24.1621 21.0103 24.592 22.9534 25.5459C24.2413 26.1779 24.8167 27.332 25.067 28.3772C23.1091 29.4981 20.8665 30.2232 18.4672 30.4354V30.4344ZM10.4435 17.2136C10.3864 17.2357 10.3253 17.2514 10.2612 17.2551L10.0405 17.2689C9.88582 17.2791 9.73704 17.2311 9.62077 17.1361C9.50449 17.0411 9.43454 16.9101 9.42468 16.7661L9.31826 15.2504C9.29954 14.982 9.49661 14.7467 9.77054 14.6895C9.78433 14.7273 9.79616 14.7633 9.80995 14.8021C9.84345 14.8962 9.94297 14.9552 10.0494 14.9451C10.1558 14.9349 10.2396 14.8583 10.2524 14.7606C10.2553 14.7338 10.2593 14.7089 10.2622 14.6831C10.278 14.6868 10.2928 14.6895 10.3085 14.6941C10.2869 15.494 10.3184 16.3565 10.4435 17.2136ZM10.3194 14.2605C10.3223 14.2412 10.3243 14.2209 10.3273 14.2024C10.3273 14.1987 10.3273 14.1941 10.3273 14.1904C10.3273 14.1941 10.3273 14.1978 10.3273 14.2015C10.3263 14.2209 10.3253 14.2412 10.3243 14.2605C10.3223 14.2605 10.3204 14.2605 10.3194 14.2605ZM10.342 13.9644C10.342 13.9644 10.342 13.9607 10.342 13.9589C10.342 13.9607 10.342 13.9626 10.342 13.9644ZM10.3834 13.4395C10.3834 13.4395 10.3834 13.4367 10.3834 13.4349C10.3834 13.4367 10.3834 13.4376 10.3834 13.4395ZM23.5476 15.112C23.585 15.1499 23.6363 15.1757 23.6954 15.1812C23.7033 15.1812 23.7102 15.1822 23.7171 15.1822C23.8225 15.1822 23.9161 15.1139 23.9398 15.017C23.9437 15.0004 23.9703 14.8851 24.0038 14.6904C24.2738 14.7504 24.4669 14.9838 24.4482 15.2495L24.3418 16.7652C24.3319 16.9091 24.262 17.0401 24.1457 17.1352C24.0294 17.2302 23.8806 17.2772 23.726 17.268L23.5042 17.2542C23.4698 17.2523 23.4363 17.2459 23.4028 17.2385C23.5092 16.5208 23.5496 15.7984 23.5476 15.112ZM23.4333 14.6849C23.4333 14.6849 23.4353 14.6941 23.4363 14.6978C23.4363 14.6978 23.4363 14.6987 23.4363 14.6997C23.4353 14.6951 23.4333 14.6895 23.4323 14.6849H23.4333ZM23.3909 14.5188C23.388 14.5096 23.386 14.5013 23.384 14.4921C23.387 14.5013 23.389 14.5096 23.3909 14.5188ZM23.384 14.4912C23.384 14.4912 23.3831 14.4875 23.3831 14.4856C23.3831 14.4866 23.3831 14.4884 23.384 14.4893C23.384 14.4893 23.384 14.4893 23.384 14.4902V14.4912ZM21.9326 13.1231C22.4972 13.2743 22.9692 13.5603 22.9061 14.0963C22.7583 15.3584 22.3632 16.696 20.358 16.7209C20.3393 16.7209 20.3206 16.7209 20.3029 16.72C20.2841 16.72 20.2664 16.7209 20.2477 16.7209C18.2415 16.696 17.8474 15.3584 17.6996 14.0963C17.6405 13.5935 18.0523 13.3112 18.5697 13.1526C18.6337 13.1959 18.7441 13.2338 18.8948 13.1498C18.9618 13.112 19.0426 13.0705 19.1333 13.028C19.6397 12.9515 20.1265 12.9524 20.3029 12.9561C20.43 12.9533 20.7167 12.9524 21.0547 12.9801C21.2025 13.0769 21.3434 13.2088 21.4695 13.3851C21.5217 13.4579 21.6084 13.4976 21.6961 13.4976C21.7484 13.4976 21.8006 13.4838 21.8469 13.4552C21.9651 13.3814 22.0006 13.2374 21.9326 13.1231ZM12.0299 13.4552C12.0762 13.4838 12.1285 13.4976 12.1807 13.4976C12.2684 13.4976 12.3551 13.4579 12.4073 13.3851C12.5334 13.2098 12.6734 13.0778 12.8212 12.981C13.1621 12.9524 13.4508 12.9542 13.5779 12.957C13.7533 12.9533 14.2371 12.9515 14.7406 13.028C14.8322 13.0705 14.913 13.1129 14.981 13.1507C15.1328 13.2356 15.2441 13.1959 15.3082 13.1526C15.8265 13.3103 16.2403 13.5935 16.1812 14.0972C16.0334 15.3593 15.6383 16.697 13.6331 16.7219C13.6144 16.7219 13.5956 16.7219 13.5779 16.7209C13.5592 16.7209 13.5414 16.7219 13.5227 16.7219C11.5166 16.697 11.1224 15.3593 10.9746 14.0972C10.9126 13.5631 11.3806 13.278 11.9422 13.1258C11.8762 13.2393 11.9117 13.3832 12.0289 13.4561L12.0299 13.4552ZM10.7598 14.7808C10.7726 14.815 10.7845 14.85 10.7953 14.8888C11.1579 15.9728 11.3865 17.0817 13.8449 17.0051C16.2078 16.9313 16.4728 14.47 16.4906 14.2771C16.527 14.2633 16.5931 14.2393 16.6739 14.2199C16.6335 14.7781 16.5172 15.6314 16.1891 16.1849C15.9151 16.6481 15.9821 17.1416 16.3615 17.4433C16.53 17.5771 16.7625 17.6647 17.0236 17.6647C17.269 17.6647 17.539 17.5872 17.8021 17.3962C17.8612 17.3529 17.872 17.2735 17.8257 17.2191C17.7794 17.1638 17.6937 17.1536 17.6346 17.197C17.1843 17.5226 16.7625 17.4295 16.5379 17.2514C16.261 17.0318 16.2176 16.661 16.4265 16.3086C16.7931 15.6895 16.9113 14.7633 16.9497 14.1858C17.1222 14.1858 17.2966 14.2356 17.3892 14.267C17.3912 14.2947 17.5902 16.9304 20.0358 17.0069C22.4943 17.0835 22.7229 15.9746 23.0855 14.8906C23.0874 14.8851 23.0894 14.8805 23.0904 14.8749C23.0904 14.9331 23.0934 14.9912 23.0934 15.0502C23.0973 15.6471 23.0697 16.2717 22.9938 16.8944C22.98 17.0042 22.9653 17.1139 22.9485 17.2237C22.9357 17.3077 22.9219 17.3916 22.9071 17.4756C22.6953 18.6924 22.2765 19.8668 21.5168 20.7773C20.9877 21.412 20.3216 21.8761 19.5274 22.1722C19.3806 22.2276 19.2298 22.2774 19.0741 22.3207C18.4918 22.4822 17.8494 22.5624 17.1468 22.5606C17.0729 22.5606 17.001 22.5588 16.93 22.556C16.9271 22.556 16.9251 22.556 16.9222 22.556C16.9192 22.556 16.9172 22.556 16.9143 22.556C16.8433 22.5588 16.7714 22.5597 16.6975 22.5606C16.6847 22.5606 16.6719 22.5606 16.6581 22.5606C15.9812 22.5606 15.3614 22.4822 14.7968 22.3281C14.6411 22.2857 14.4903 22.2377 14.3435 22.1833C13.5385 21.8871 12.8635 21.4185 12.3275 20.7764C11.556 19.8511 11.1352 18.6537 10.9273 17.4165C10.9116 17.3243 10.8968 17.232 10.884 17.1398C10.7697 16.3418 10.7391 15.5355 10.7559 14.7808H10.7598ZM19.0761 22.7589V23.6206C19.0515 23.6381 19.0288 23.6566 19.0071 23.6778C18.7598 23.9241 18.0612 24.497 16.933 24.5081C15.8008 24.497 15.1022 23.9232 14.8539 23.6778C14.8372 23.6612 14.8184 23.6455 14.7997 23.6317V22.7636C15.3811 22.9093 16.0156 22.9831 16.7024 22.9813C16.7783 22.9813 16.8522 22.9794 16.9241 22.9767C16.997 22.9785 17.0709 22.9804 17.1458 22.9813C17.1596 22.9813 17.1734 22.9813 17.1872 22.9813C17.8691 22.9813 18.4977 22.9056 19.0751 22.7589H19.0761ZM25.471 28.1355C25.1793 27.0377 24.5389 25.8458 23.1653 25.1714C21.0783 24.1464 20.0467 23.7184 19.6171 23.5551C19.5885 23.544 19.5589 23.5357 19.5294 23.5293V22.6252C20.4655 22.3069 21.2468 21.7783 21.8627 21.0384C22.6549 20.0882 23.1012 18.8907 23.3318 17.6555C23.3781 17.6647 23.4254 17.6712 23.4737 17.6739L23.6954 17.6878C23.7181 17.6896 23.7417 17.6896 23.7644 17.6896C24.0147 17.6896 24.2541 17.6066 24.4443 17.4507C24.6512 17.2818 24.7753 17.0475 24.7941 16.7911L24.9005 15.2753C24.935 14.7873 24.5684 14.3602 24.0649 14.2698C24.1428 13.6406 24.2058 12.6581 24.0738 11.5003C24.4384 11.6424 24.6995 11.7586 24.7034 11.7605C24.7773 11.7937 24.865 11.7872 24.932 11.7448C25 11.7014 25.0365 11.6285 25.0296 11.5529C25.0217 11.4708 24.8414 9.67646 23.6402 8.36645C23.6442 8.36645 23.6471 8.36645 23.6511 8.36645C23.8343 8.36645 23.9122 8.39044 23.9082 8.38952C23.992 8.42365 24.0895 8.40797 24.1565 8.35077C24.2235 8.29265 24.2462 8.20316 24.2147 8.12383C24.2058 8.10076 23.2944 5.8959 20.5827 5.66619C20.698 5.52043 20.8911 5.33039 21.0951 5.16986C21.1601 5.1182 21.1887 5.03794 21.169 4.96137C21.1493 4.8848 21.0852 4.82391 21.0025 4.80454C20.8734 4.77502 17.9085 4.11079 14.6775 5.2778C14.7071 5.09514 14.7643 4.88296 14.8096 4.7455C14.8322 4.67631 14.8145 4.60066 14.7633 4.54623C14.712 4.4918 14.6332 4.46505 14.5554 4.47612C14.514 4.48258 10.4455 5.12097 9.94888 8.84248C9.52913 9.10448 8.30336 10.254 9.6316 14.2845C9.16357 14.3998 8.83151 14.8104 8.86501 15.2763L8.97142 16.792C8.98916 17.0484 9.11331 17.2818 9.32122 17.4516C9.51139 17.6066 9.74984 17.6905 10.0011 17.6905C10.0238 17.6905 10.0474 17.6905 10.0701 17.6887L10.2908 17.6748C10.3677 17.6702 10.4416 17.6573 10.5145 17.6379C10.745 18.8797 11.1914 20.0845 11.9866 21.0393C12.6083 21.7857 13.3996 22.317 14.3465 22.6335V23.5274C14.312 23.5339 14.2775 23.5422 14.244 23.5551C13.8144 23.7193 12.7837 24.1464 10.6958 25.1714C9.35275 25.831 8.71031 26.9851 8.40978 28.0626C4.24375 25.4574 1.49267 21.0144 1.49267 15.9801C1.49267 7.97438 8.44919 1.46127 17 1.46127C25.5508 1.46127 32.5073 7.97438 32.5073 15.9801C32.5073 21.0615 29.704 25.5404 25.471 28.1355Z" stroke="#33820D" stroke-width="0.25"/>
<path d="M25.3296 22.4866C24.2292 22.891 23.8733 23.7106 23.816 24.0326C22.5258 24.3225 22.009 25.1599 21.8206 25.9007C21.5454 26.9829 22.1189 27.8225 22.44 28.0587C22.0547 29.1924 22.6005 30.1629 22.9216 30.5065C23.988 31.4244 24.9225 31.2688 25.4844 31.2473C26.138 32.1008 27.4911 32.1062 28.0645 31.9559C29.4749 31.521 29.8188 30.6622 29.8188 30.2649C30.9747 30.2134 31.6135 29.304 31.797 28.8639C32.2097 27.4789 31.5217 26.5449 31.2466 26.3516C31.742 25.0375 30.9598 24.1454 30.6617 23.8555C29.7672 22.9859 28.7697 23.0557 28.1849 23.163C28.1505 22.8409 26.6883 21.9874 25.3296 22.4866Z" fill="#33820D"/>
<path d="M25.4661 23.163C26.434 22.7173 27.2377 23.1522 27.5129 23.4045L25.6208 24.4996C25.3112 24.6607 25.2424 24.8217 25.2424 25.0311V27.495L24.3652 27.028V25.1116C24.3652 24.4996 24.4168 23.6461 25.4661 23.163Z" fill="#E8F0E1"/>
<path d="M29.8465 24.0541C30.7445 24.6135 30.7468 25.4826 30.6522 25.8322L28.6901 24.8512C28.3857 24.6815 28.2025 24.7068 28.0092 24.812L25.7341 26.0504L25.7244 25.1057L27.4939 24.1425C28.0589 23.8349 28.873 23.4476 29.8465 24.0541Z" fill="#E8F0E1"/>
<path d="M31.2533 28.0609C31.1804 29.0685 30.3758 29.5019 30.0047 29.5985L29.9401 27.5168C29.9463 27.1852 29.8319 27.0488 29.6384 26.944L27.3606 25.7098L28.2317 25.2329L30.0033 26.1928C30.5691 26.4993 31.3322 26.9686 31.2533 28.0609Z" fill="#E8F0E1"/>
<path d="M28.2482 31.1839C27.2889 31.6455 26.4771 31.2239 26.1972 30.9762L28.0682 29.85C28.3748 29.6839 28.4405 29.5217 28.4366 29.3124L28.39 26.8489L29.2759 27.3013L29.3121 29.2174C29.3237 29.8292 29.2883 30.6835 28.2482 31.1839Z" fill="#E8F0E1"/>
<path d="M23.8255 30.3194C22.9259 29.7622 22.921 28.8932 23.0147 28.5434L24.9796 29.5194C25.2844 29.6884 25.4676 29.6626 25.6606 29.5569L27.9322 28.3127L27.9445 29.2575L26.1778 30.2251C25.6136 30.5342 24.8007 30.9235 23.8255 30.3194Z" fill="#E8F0E1"/>
<path d="M22.4536 26.2416C22.5398 25.235 23.3501 24.811 23.7225 24.7187L23.7594 26.801C23.7487 27.1325 23.8613 27.2702 24.0535 27.3773L26.3146 28.638L25.4372 29.1047L23.6785 28.1242C23.1169 27.8111 22.36 27.3329 22.4536 26.2416Z" fill="#E8F0E1"/>
<path d="M25.7412 26.5934L26.842 25.9976L27.9429 26.5934V27.769L26.8592 28.381L25.7412 27.7851V26.5934Z" fill="#E8F0E1"/>
</svg>
