<svg width="16" height="16" viewBox="0 0 16 16" fill="none" xmlns="http://www.w3.org/2000/svg">
<g clip-path="url(#clip0_828_20436)">
<g clip-path="url(#clip1_828_20436)">
<path fill-rule="evenodd" clip-rule="evenodd" d="M4.09437 0.607136C3.28563 -0.201728 1.97426 -0.201728 1.16552 0.607136C0.347231 1.42554 0.358501 2.75575 1.19054 3.56017L7.34139 9.50686C7.40695 9.57025 7.48746 9.61606 7.57544 9.64006L10.2406 10.367C10.4263 10.4177 10.6248 10.3661 10.7623 10.2315C10.8998 10.0969 10.9556 9.8995 10.9089 9.71284L10.1821 6.80493C10.1583 6.70966 10.109 6.62264 10.0396 6.5532L4.09437 0.607136ZM1.93192 1.37343C2.31741 0.987878 2.94248 0.987878 3.32797 1.37343L3.70741 1.75292L2.3922 3.21447L1.94385 2.781C1.54725 2.39757 1.54188 1.76352 1.93192 1.37343ZM3.17187 3.96826L4.47476 2.52039L8.78612 6.83237L7.57095 8.22133L3.17187 3.96826ZM8.52577 8.77591L9.32832 7.85857L9.63313 9.07796L8.52577 8.77591ZM11.2876 10.55C10.9883 10.55 10.7457 10.7926 10.7457 11.0919C10.7457 11.3911 10.9883 11.6338 11.2876 11.6338H14.8999C15.1992 11.6338 15.4418 11.3911 15.4418 11.0919C15.4418 10.7926 15.1992 10.55 14.8999 10.55H11.2876ZM1.17305 12.7457C0.873768 12.7457 0.631156 12.9883 0.631156 13.2876C0.631156 13.5869 0.873768 13.8295 1.17305 13.8295H14.8999C15.1992 13.8295 15.4418 13.5869 15.4418 13.2876C15.4418 12.9883 15.1992 12.7457 14.8999 12.7457H1.17305ZM1.17305 14.9163C0.873768 14.9163 0.631156 15.1589 0.631156 15.4582C0.631156 15.7575 0.873768 16.0001 1.17305 16.0001H14.8999C15.1992 16.0001 15.4418 15.7575 15.4418 15.4582C15.4418 15.1589 15.1992 14.9163 14.8999 14.9163H1.17305Z" fill="#33820D"/>
</g>
</g>
<defs>
<clipPath id="clip0_828_20436">
<rect width="16" height="16" fill="white"/>
</clipPath>
<clipPath id="clip1_828_20436">
<rect width="16" height="16" fill="white"/>
</clipPath>
</defs>
</svg>
