<svg id="Camada_1" data-name="Camada 1" xmlns="http://www.w3.org/2000/svg" viewBox="0 0 197.84 156.56"><defs><style>.cls-1{fill:none}.cls-3{fill:#f7bd9b}.cls-4{fill:#6b1f25}.cls-6{fill:#fff}.cls-7{fill:#f5bc9a}.cls-8{fill:#fbf5fa}.cls-9{fill:#fcd9be}.cls-11{fill:#fdec92}.cls-12{fill:#7f262e}.cls-13{fill:#805759}.cls-14{fill:#b96e66}.cls-15{fill:#b5535c}.cls-16{fill:#a8b2a1}.cls-17{fill:#c9d5c2}.cls-18{fill:#d17b6b}.cls-19{fill:#df8b86}.cls-21{fill:#dee5db}.cls-22{fill:#109439}.cls-23{fill:#21766d}.cls-24{fill:#411d1f}.cls-25{fill:#149339}.cls-26{fill:#3f555d}.cls-28{fill:#88c080}.cls-29{fill:#89363c}.cls-30{fill:#2d1a18}.cls-31{fill:#2e4147}.cls-32{fill:#59222a}.cls-33{fill:#4f3132}.cls-6{isolation:isolate;opacity:.65}</style></defs><path d="M180.43 75.47c-1.1-1.7-2.3-3.5-3.6-5.4l-.1-.1c-5.7-8.2-13.9-18.9-31.1-41.8-21.2-28.2-52.6-18.8-65.7-4.9-12.6 13.5-34.2 38.3-47.2 54.8-7.7 9.7-11.8 18-11.3 26.1.2 4.3 1.8 8.6 4.8 13 5.4 7.8 11.6 17.2 23.9 29.3 14.7 14.4 33.9 11.5 52.8 2.2 13.8-6.8 33.5-14.1 63.9-31.5 30.4-17.3 19.6-32.5 13.6-41.7Z" style="fill:#dce4c3"/><path class="cls-29" d="M127.03 62.77c-20.5 5.6-18.6-28.4-27.5-45.3 1.6 5.9 2.8 14 4.7 21.6 1.9 7.4 4.5 14.4 5.2 16.5.2.4.3.8.6 1.2 1 1.8 4 7.4 6.8 11.1 5.9 7.6 12.7 12.2 15.2 10.3 2.3-1.8 0-8.4-5-15.4Z"/><path class="cls-19" d="M126.93 62.77q.1 0 0 0c-.4-.6.2-1.7-.3-2.3-2.4-3.1-6.6-8.3-6.6-8.3s-1.3-6.6-4.5-15.5-6.9-17.9-9.3-22.9c-.7-1.4-1.2-1.7-1.7-1.7 4.8 13 10.5 26.1 13.1 40.2 3.4 3.5 5.9 7 9.3 10.5Z"/><path class="cls-15" d="m117.73 52.27.3 1.5c-.1-.4-.2-.9-.3-1.5-.3-.4-.7-.7-1-1.1.4.4.7.8 1 1.1-2.6-14.1-8.3-27.2-13.1-40.2-.7.1-1.4.9-2.2 1.1-1.5.3-4.9-1.8-3.5 2.4.2.6.4 1.2.5 1.9 8.9 16.9 7 50.9 27.4 45.3-3.3-3.5-5.8-7-9.1-10.5Z"/><path class="cls-13" d="M161.63 27.07c-.1 0-.1-.1-.2-.1-4.5-1.4-7.3 1.5-7.2 2.8.1 1 .1 1.6.3 2.2v-.3c1.7-2.7 4.4-4.4 7.1-4.6Z"/><path class="cls-33" d="M177.83 57.77c-.4-.3-.8-.5-.9-1-.3-.9.6-2.1.7-3.1.1-1.5-.4-3.1-1.5-4.2-.6-.6-2.1-1.1-2.5-1.8-.4-.8.2-1.9.2-2.7.1-.8 0-1.6-.3-2.4-.4-1.2-1.1-2.4-2.1-3.3-1-.9-2.4-1.1-3.4-2-1.7-1.5-.9-4.1-1.7-5.9-.8-1.8-2.3-3.4-4.2-4-2.8-.9-6.2 2.1-7.6 4.3v.3c.1.6.4 1.1.9 1.9.7 1.3 1.9 1.8 3.1 1.7-.3 1.4-.5 2.9-.7 4.3-.3 3.1-.3 6.3.6 9.3.9 2.9-4.2 6.9-2 8.7 2 1.6-1 8.5 1 10.1 9.5 7.2 5.7 12.4 2.8 6-.8-1.9-3.4-2.2-4.8-1.1-1.7 1.3-1.3 2.8-1.4 4.6-.1 2.1-.8 3.9-.1 6 .6 1.8 2.3 3.4 4.1 3.2 1.3-.1 3.1-2.1 4.2-1.8.5.1 1.3 1.1 1.8 1.5.7.4 1.4.6 2.1.7 2.2.2 4.5-.9 5.7-2.7 1.1-1.6.6-3.8 2.3-5.1 1.9-1.5 4.6-2.3 5.7-4.6.7-1.4.7-3.1.1-4.6-.3-.6-.6-1.2-.9-1.9-.6-1.6 1.1-3.5 1.1-5.3.1-1.9-.7-3.6-2.2-4.7.2-.2 0-.3-.1-.4Z"/><path class="cls-30" d="M177.23 68.57c-.9-2.8 1-5.4-.9-8-1.3-1.9-3.3-2.8-5-4.3-1.8-1.7-1.7-3.9-1.4-6.2.4-2.9-.2-5.7-2.1-8-2.1-2.6-4.8-2.8-7.5-4.2-2.5-1.3-4.4-3.3-6.1-5.4-.7-.8-1.4-1.2-2.1-1.2.2 1.9.2 2.2 1.1 3.8.7 1.3 1.9 1.8 3.1 1.7-.3 1.4-.5 2.9-.7 4.3-.3 3.1-.3 6.3.6 9.3.9 2.9-4.2 6.9-2 8.7 2 1.6-1 8.5 1 10.1 9.5 7.2 5.7 12.4 2.8 6-.8-1.9-3.4-2.2-4.8-1.1-1.7 1.3-1.8 3.6-1 5.5 1 2.3 2.9 4.1 5.4 4.9 1.2.4 2.4.3 3.6.6 1.6.4 3 1.1 4.7 1.2 1.9.1 4-.6 5.1-2.2 1.1-1.5 1.1-3.6 2.2-5.1 1.2-1.6 3.5-2.1 4.6-3.8 1.7-2.4 0-4.4-.6-6.6Z"/><path class="cls-22" d="M151.23 32.87c1-2.2 3-2.9 6.1-2.2 4.3.9 5.7 6.3 3.2 9.5-2.5 3.1-7.2-2.5-7.2-2.5l-2.1-4.8Z"/><path class="cls-33" d="M164.53 61.67c-.2-.4-.5-.9-.7-1.3-.5-.8-1.7-1.5-2-2.4 0-.1-.1-.2-.1-.3v-.1c-.1-.2-.2-.3-.3-.5-.2-.4-.5-.7-.7-1-.6-.9-1-1.9-1-3 0-.3.1-.6.2-.8-.1-2.6.6-5.1.8-7.6.1-1.8.2-3.7.2-5.5 0-2-.3-4.1-1.7-5.7-1.4-1.6-3.1-2.9-5-3.8h-.1c-.6-.3-1.2-.5-1.7-.7-.6-.2-1.3-.4-1.9-.6-8.4-2-16.7 2.9-18.7 11-1.6 6.6 5.3 9.8 8.4 15.1 3.2 5.6 2.5 13.1 4.4 19.3.7 2.5 1.4 5.1 2.8 7.3 2.5 4 8.9 5.8 12.8 2.6 3.5-2.9 5.8-7.2 6.3-11.7.3-2.6-.1-5.3-1-7.9-.2-.9-.6-1.6-1-2.4Z"/><path class="cls-30" d="M164.93 62.27c-3.1-4.7 1.8 1 2-1.1 0-7.3-4-14.1-6-21-.4 2.8-.4 4.3-1.8 6.7.8-3 .6-6.1-.4-9-1.7 1.2-2 1.7-4 .9-1.7-.7-3.2-2-4.5-3.3-8.4-8.3-8.3 24.9-4.6 30.3 1.2 1.7-.2 7.1 4 11.1 10 4.7 12.8-.7 18.3.6 5.1 1.3 5.8-1.7-3-15.2Z"/><path class="cls-15" d="M187.73 12.17c-.6-.2-1.3-.7-2-.9-.9-.3-1.9-.1-2.6 2.1-1.9 6.1-5.2 13.7-9 22-3.3 7.3-4.9 14.1-4.9 14.1s-3.2 4-5.7 7.4l-.6.9c-5.6 7.8-6.1 14.8-3.6 16.5 0 0 .1 0 .2.1 17-16.9 23.8-39.2 30-61.6-.5-.4-1.2-.4-1.8-.6Z"/><path class="cls-19" d="M170.43 50.37c4.3-13.9 9.4-24.7 15.3-39.1-.9-.3-1.9-.1-2.6 2.1-1.9 6.1-5.2 13.7-9 22-3.3 7.3-4.9 14.1-4.9 14.1s-3.2 4-5.7 7.4c2.1-2.5 4.1-4.9 6.9-6.5Z"/><path class="cls-29" d="M189.53 12.67c-6.1 22.4-13 44.7-30 61.6 2.7 1.4 8.9-3.6 14.2-11.4 2.8-4.2 4.8-8.1 6.1-11 1.4-3.2 2.9-7.4 4.9-13.4 2.9-8.6 5.2-18.1 5.5-22.6.2-1.9-.1-2.8-.7-3.2Z"/><path class="cls-26" d="M171.93 70.47c-1-1.7-2-3.3-3-4.8-2-2.9-4.2-5.6-6.8-8.1l-11 11.6-15.3.9-9-11.2c-2.3 3-4.4 6.2-6.2 9.5-.9 1.7-1.8 3.4-2.5 5.1l9 10.1.3.3s-3.9 5.7-2.1 12c.4 1.4 1.3 2.8 2.2 3.9 1.3 1.5 1.9 3.5 1.6 5.5-.9 7-3 23.3-3.9 33.2 10.5-4.8 23.1-10.9 38.7-19.6-1.6-8.2-2.7-21.4 1.6-39.1.1-.3 4-5.8 6.4-9.3Z"/><path class="cls-31" d="M122.13 70.17c7.6 8.8 6.5 8.5 4.9 13.4l-9-10.1c.8-1.7 1.6-3.4 2.5-5.1.5.6 1.1 1.2 1.6 1.8ZM171.93 70.47c-1-1.7-2-3.3-3-4.8-2.8 4.8-4.2 7.6-7.9 11.5-5.2 5.4-3.3 11-6.3 16.2-3 5.2-14.3 5.8-11 11.1 1.5 2.4 3.9 2.7 5.7 4.5 2.3 2.3 1.9 5.6 1.7 8.6-.3 3.2-1 6.3-2.1 9.3 4.6-2.4 9.6-5.1 14.9-8.1-1.6-8.2-2.7-21.4 1.6-39.1.1-.2 4-5.7 6.4-9.2Z"/><path class="cls-17" d="M173.53 67.27c-.9-1.8-1.9-3.5-3-5-1.8-2.5-3.9-4.8-6.3-6.8l-2 2.1c2.5 2.5 4.7 5.1 6.7 8 1.1 1.6 2.1 3.2 3.1 4.9 1.1-1.5 1.9-2.7 1.9-2.7l-.4-.5Z"/><path class="cls-17" d="m164.23 55.47-2 2.1c2.5 2.5 4.7 5.1 6.7 8 .6-1.1 1.1-2.3 1.7-3.4-1.9-2.4-4-4.7-6.4-6.7Z"/><path class="cls-16" d="m173.83 67.87-.3-.6c-.9-1.8-1.9-3.5-3-5-.6 1.1-1.1 2.3-1.7 3.4 1.1 1.6 2.1 3.2 3.1 4.9 1.1-1.6 1.9-2.7 1.9-2.7Z"/><path d="M142.23 52.77h1.1c.5 0 1 0 1.6.1.4 0 .8.1 1.1.2.3.1.4.4 0 .6-.4.1-.9.1-1.3.1-.5 0-.9 0-1.4-.1-.5 0-.9-.1-1.3-.1s-.8 0-1.1-.2c-.1-.1 0-.3.2-.3.3-.1.6-.1.9-.1h.1c0-.2.1-.2.1-.2Z" style="fill:#f9d1be"/><path class="cls-24" d="M141.03 50.47c-.1.4 0 .7 0 1.1 0 .3.1.5.2.6.1.1.3-.1.4-.4.1-.2.2-.5.2-.7.3-1.1.5-2.1.7-3.2.1-.5.2-.9.2-1.4 0-.3 0-.5-.1-.6-.1-.2-.3-.1-.4.1-.1.1-.1.2-.2.3-.1.3-.2.5-.3.8-.3 1-.4 2.2-.7 3.4ZM134.03 45.37c-.3.8-.6 1.7-.7 2.5-.1.7-.3 1.4-.4 2.1 0 .3 0 .6.1.8.2 0 .4-.2.5-.5s.2-.7.3-1c.3-1.2.5-2.3.8-3.5 0-.2.1-.4.1-.6.3-1.4-.5-.6-.7.2Z"/><path d="M143.43 55.87s-.1 3.6-3.1 3.7c-3.4.1-2.7-3.5-2.7-3.5" style="fill:#fff"/><path class="cls-12" d="M139.53 59.87c.3.1.6.1.9.1 2.6-.1 3.4-2.7 3.4-4.1 0-.2-.2-.4-.4-.4s-.4.2-.4.4c0 .1-.2 3.3-2.7 3.4-.8 0-1.4-.2-1.8-.6-.8-.9-.5-2.5-.5-2.5 0-.2-.1-.4-.3-.4-.2 0-.4.1-.4.3 0 .1-.3 1.9.7 3.1.3.3.9.6 1.5.7Z"/><path class="cls-12" d="M135.23 56.07h8.2c.2 0 .4-.2.4-.4s-.2-.4-.4-.4l-7.8.1.1-4.7 1 1.1c.1.1.4.2.5 0 .1-.1.2-.4 0-.5l-1.6-1.8c-.1-.1-.3-.1-.4-.1-.1.1-.2.2-.2.3l-.1 6c0 .1 0 .2.1.3s.1.1.2.1Z"/><path class="cls-13" d="M150.03 28.87c.7-.3 1.3-.5 2.4-.1-.6-.2-1.2-.4-1.9-.6-8.4-2-16.7 2.9-18.7 11-.5 2.1-.5 4.3-.1 6.3 4.5-2.5 8.9-10.1 8.5-12.8-.4-2.5 3.3-3 5-3.2 1.2-.2 2.6 0 3.7-.3.5 0 .8-.1 1.1-.3Z"/><path class="cls-15" d="M157.83 49.67c.2-.6 1 .5 1-.2-.3-3.5-3.4-4.1-4.7-3.7-.7-6.5-3.4-12.7-10.7-13.2 0 0-1.4-.2-3.3.2l-.1.1c-2.2 1.5-4.5 2.7-5.9 5.1-1.3 2.3-1.8 5.1-2.1 7.7-.5 5-1.6 11.6 3.5 14.7l.3.3c.1 0 .1.1.2.1.1.1.2.1.3.2q.1 0 .2.1c.6.2 2.5.8 3.6.8.3 1.9.4 3.1.3 4.4-.1 1-.7 1.9-1.6 2.4-.5.2-.9.5-1 .9l.9 3.6 2.3 3.4c1 1.3 2.9 1.5 4.2.4l3.7-3.3c1.5-1.8.8-3.9 2.8-5.2.4-.3.9-.5 1.3-.7-.1.1-1.6-4.1-1.6-7.6 0-1.3.2-2.6.5-3.9.3-1.2 1-2.3 1-3.5 1.4 0 2.8-.4 3.8-1.3.5-.5.9-1.1 1.1-1.8Z"/><path class="cls-29" d="M151.83 56.17c-1.4 7.1 1.1 11.9 1.1 11.9l-4.1 4.4-.5-2.2c-.8-3.5-3-6.6-6.2-8.3l.2-.3s4.4.1 7.2-2.9c1.4-1.4 2.3-2.6 2.3-2.6Z"/><path class="cls-24" d="M144.73 45.67c0 .3 0 .7.1 1 0 .3.1.5.3.5s.3-.1.4-.4c.1-.2.1-.5.1-.7.1-1 .3-2.1.4-3.1.1-.5.1-.9.1-1.4 0-.2-.1-.4-.2-.6-.2-.1-.3 0-.5.1-.1.1-.1.2-.2.3-.1.3-.2.5-.2.8-.2 1.2-.2 2.4-.3 3.5Z"/><path class="cls-8" d="M146.23 51.77s.3 4-3 4.1c-3.7.1-3.4-3.6-3.4-3.6"/><path class="cls-4" d="M142.03 56.17c-.6-.2-1.2-.4-1.6-.9-1.1-1.2-1-3-1-3.1 0-.2.2-.4.4-.4s.4.2.4.4c0 0-.1 1.5.8 2.5.5.5 1.3.8 2.2.8.8 0 1.4-.3 1.8-.8.9-1.1.8-2.9.8-2.9 0-.2.1-.4.3-.4s.4.1.4.3c0 .1.2 2.1-1 3.4-.6.6-1.4 1-2.3 1-.4.2-.8.1-1.2.1Z"/><path class="cls-1" d="m147.03 44.37.7-.2M146.93 45.07l.9.2"/><path class="cls-19" d="M137.63 61.47c-5.7-1.5-5.3-12.1-3.5-19.9 1.4-6.2 4.5-7.6 6.2-8.7-3.1.5-7.6 2.5-9 9-2.7 12.2.9 18.2 6.3 19.6Z"/><path class="cls-24" d="M135.63 41.97c-.2.8-.4 1.6-.5 2.5-.1.7-.2 1.3-.2 2 0 .3.1.6.2.7.3 0 .4-.2.5-.6.1-.3.2-.6.2-1 .2-1.1.3-2.2.5-3.4v-.5c.3-1.3-.5-.5-.7.3Z"/><path class="cls-29" d="M158.93 50.97c0-.7-.1-1.5-.5-2.1-.8-1.4-2.5-2.3-4.1-2.1 0-2.5-.5-5.1-1.5-7.5-.5-1.2-1.2-2.3-2-3.2-1-1.1-2.3-1.5-3.4-2.4 3.4 2.7 3.7 9.8 3.6 13.7-.2 4.9-2.1 10.8-5.9 14 .2-.2 3.2-.6 5.3-2.3 1.5-1.2 2.2-2 3.2-4.3 1.5.5 3.4 0 4.4-1.3.6-.7.9-1.6.9-2.5Z"/><path class="cls-19" d="M144.23 47.47h.9c.4 0 .8 0 1.2.1.3 0 .6.1.9.2.3.1.3.4 0 .6-.3.1-.7.1-1 .1-.4 0-.7 0-1.1-.1-.3 0-.7-.1-1-.1s-.7 0-.8-.3c-.1-.1 0-.3.1-.3.2-.1.5-.1.7-.1-.1-.1 0-.1.1-.1q-.1 0 0 0Z"/><path class="cls-4" d="M137.43 52.47c-.2 0-.3-.2-.3-.3l-.5-5c0-.1 0-.3.2-.4.1-.1.3-.1.4 0l1.8 1c.2.1.3.3.2.5s-.3.3-.5.2l-1.2-.6.4 4 8.4-.4c.2 0 .4.2.4.4s-.2.4-.4.4l-8.8.4q-.1-.1-.1-.2Z"/><path class="cls-17" d="M124.73 56.47c-2.4 3-4.5 6.2-6.3 9.7-.6 1.2-1.3 2.5-1.8 3.8l-.6 1.3 2 2.2c.8-1.7 1.6-3.4 2.5-5.1 1.8-3.3 3.9-6.5 6.2-9.5l-2-2.4Z"/><path class="cls-16" d="m116.63 69.87-.6 1.3 2 2.2c.8-1.7 1.6-3.4 2.5-5.1-.7-.8-1.4-1.6-2.1-2.3-.6 1.4-1.3 2.6-1.8 3.9Z"/><path class="cls-23" d="M127.43 90.67c.2-2.6.2-6-.1-6.7-.2.3-3.8 5.9-2.1 12 .4 1.4 1.3 2.8 2.2 3.9 1.3 1.5 1.9 3.5 1.6 5.5-.7 5.3-2.1 15.8-3 24.9 2-7.9 5.3-21.7 5.2-26.5-.2-5-4.3-5.8-3.8-13.1Z"/><path class="cls-15" d="M109.13 8.77c-.2-1.9-1-3.7-2.9-3.9h-.1v-1.4c-.1-.6-.2-1.3-.4-1.9-.3-.7-1-1.3-2.1-1.5-.7-.1-1.4.3-1.6 1.1-.8-1.7-3.4-1.6-3.4.6-.5-.7-1.5-1.1-2.3-.8s-1.4 1.6-1.2 2.5c-1.4-.4-2.4.4-2.7 1.6-.2.7-.2 1.5.1 2.3.4 1.6 1.2 3.3 1.9 4.4 1.1 1.9 2.6 3.5 4.4 4.7 1.8 1.2 4.8-.2 6.5-1 2.5-1.2 4.2-3.5 4-6.3-.1-.1-.1-.2-.2-.4Z"/><path class="cls-15" d="M109.13 8.77c-.4-1.5-1.2-2.7-2.9-2.9v-1.1c2 .4 2.8 2.1 2.9 4Z"/><path class="cls-19" d="M106.13 3.47c-.1-.3-.2-.6-.3-.8-.4-.7-.5-1.9-1.6-2-1.1-.2-1.9.9-2 1.7-.4-3.5-3.4-1.6-3.4.6-.5-1.9-1.8-1.3-2.2-.9-.6.6-1.6 1.5-1.4 2.3-1.4-.4-2.2.7-2.6 1.8-.1.4-.2.8-.1 1.3-.2-.9-.3-1.7-.1-2.3.4-1.2 1.3-1.9 2.7-1.6-.1-.9.4-2.2 1.2-2.5.8-.3 1.8 0 2.3.8 0-2.2 2.6-2.3 3.4-.6.2-.8.9-1.2 1.6-1.1 1.1.1 1.8.7 2.1 1.5.2.5.3 1.2.4 1.8Z"/><path class="cls-29" d="M102.03 5.87c.5-.7.4-1.8.3-2.5 0-.7-.2-1.4-.4-2-.1 1.3-.8 2.8-2 3.5l-.5.3c0 .6.7 1.2 1.4 1.2.6 0 1-.2 1.2-.5Z"/><path class="cls-29" d="M98.43 2.47c.2 1.4 1.7 2.7 1.4 4.1 0 .2-.3.4-.5.6-.4.4-1.1.5-1.7.3-.3-.1-.6-.2-.8-.4-.1 0-.6-.7-.5-.7 2.1-.2 2.4-2.2 2.1-3.9ZM100.23 8.97c.6.9 1.9 1.2 3 .9 1-.3 1.8-.1 2.9.1 2 .3.4-2.7-.9-2.8-.4 0-.8.1-1.2.3-.4.2-.7.4-1.1.6-1 .3-2 .3-2.9-.3-.1.5 0 .9.2 1.2Z"/><path class="cls-29" d="M95.73 5.57c0-.4-.1-.8-.2-1.1.4 1.4 2.9 3.3.8 4.6-.6.4-1.7.3-2.3-.2 1.4-.3 1.8-1.9 1.7-3.3ZM106.13 4.87c0-.5-.1-1-.1-1.5-.1-.5-.4-1.1-.4-1.6 0 .6-.7 1.6-1.1 2-.6.6-1.7.9-2.6.7 0 0 .4 1 .5 1.1.3.2.7.2 1 .2.8-.1 1.5-.4 2.1-1"/><path class="cls-19" d="M105.03 4.97c-4 .7-4.3.7-4.9 1.2-.6.5 0 .9.9.7s4.5-1.3 5-1.4-.1-.6-1-.5ZM102.23 10.27c-.2.1-.4.3-.5.4-.3.4-.5.8-.6 1.3 0 .2-.1.7.1.9.4.3.7-.4.9-.7.7-.8 1.4-1.7 2.3-2.3 0 0-.6-.2-.7-.2-.2 0-.5.1-.7.1-.3.2-.6.3-.8.5Z"/><path class="cls-15" d="M197.63 5.07c-.1-.2-.2-.5-.3-.7-.5-.8-1.3-1.2-2.4-.9.1-.9-.4-2.2-1.2-2.5s-1.8 0-2.3.8c0-2.2-2.6-2.3-3.4-.6-.2-.8-.9-1.2-1.6-1.1-1.1.1-1.8.7-2.1 1.5-.3.5-.4 1.3-.4 1.9v1.4h-.1c-1.9.3-2.7 2-2.9 3.9v1c.2 2.5 1.8 4.5 4 5.6 1 .5 2.4 1.1 3.7 1.4 1 .2 2 .2 2.8-.3 1.8-1.2 3.3-2.9 4.4-4.7.6-1.1 1.5-2.8 1.9-4.4.1-.8.2-1.7-.1-2.3Z"/><path class="cls-29" d="M197.33 4.37c-.3 1.3-.7 2.5-1.2 3.7-.2.6-.3.7-1 .9-.4.1-1.4.2-1.7-.1.3.3.7.5.9.9.5.7.3 1.4-.1 2.1-.6.8-1 1.3-1.6 2-.6.6-1.2 1.2-1.9 1.7-.3.3-.7.5-1.1.7-.2.1-.9.6-1.1.6 1 .2 2 .2 2.8-.3 1.8-1.2 3.3-2.9 4.4-4.7.6-1.1 1.5-2.8 1.9-4.4.2-.9.3-1.7.1-2.3-.1-.4-.2-.6-.4-.8Z"/><path class="cls-19" d="M180.83 8.77c.1-.8.7-1.8 1.3-2.3.3-.3.8-.5 1.2-.6.6-.1 1.2-.2 1.8-.1v-.8c-1.1-.3-2.3-.1-3.2.7-.7.7-1.1 1.7-1.2 2.7.1.1.1.3.1.4ZM183.93 3.47c.1-.3.2-.6.3-.8.4-.7.5-1.9 1.6-2 1.1-.2 1.9.9 2 1.7.4-3.5 3.4-1.6 3.4.6.5-1.9 1.8-1.3 2.2-.9.6.6 1.6 1.5 1.4 2.3 1.4-.4 2.2.7 2.6 1.8.1.4.2.8.1 1.3.2-.9.3-1.7.1-2.3-.4-1.2-1.3-1.9-2.7-1.6.1-.9-.4-2.2-1.2-2.5s-1.8 0-2.3.8c0-2.2-2.6-2.3-3.4-.6-.2-.8-.9-1.2-1.6-1.1-1.1.1-1.8.7-2.1 1.5-.3.5-.4 1.2-.4 1.8Z"/><path class="cls-29" d="M187.93 5.87c-.4-.5-.5-1.5-.5-2.1 0-.2.1-.3.3-.4.1 0 .3 0 .4.1.1.1.2.2.2.3.8 1.2 2.3-.3 2.9-1-.1.4-.1.8-.2 1.2-.2 1-.6 2.2-1.9 2.3-.6.1-1-.1-1.2-.4Z"/><path class="cls-29" d="M191.03 4.27h-.3c-.4.2-.3.5-.4.9 0 .5-.3.9-.2 1.4 0 .2.3.4.5.6.5.5 1.3.6 1.9.4.3-.1 1.4-.6 1.4-.9 0-.2.3-.7.3-.9.1-.4.3-.9.4-1.3.1-.2.1-.4.1-.6s-.2-.4-.4-.4-.3.1-.4.2-.1.3-.2.4c-.3.6-1.7 2.6-2.3 1.3-.1-.4.1-.9-.4-1.1ZM189.73 8.97c-.1.2-.3.3-.4.4-.7.5-1.7.7-2.6.5-1-.3-1.8-.1-2.9.1-2 .3-.4-2.7.9-2.8.4 0 .8.1 1.2.3.4.2.7.4 1.1.6.6.2 1.2.2 1.8 0 .2-.1.4-.2.6-.1.3.1.5.4.4.8.1 0 0 .1-.1.2ZM186.43 5.77c-.5 0-.9-.2-1.3-.4-.2-.1-.3-.2-.5-.2s-.4.2-.7 0c-.1-.1-.2-.2-.2-.4s0-.3.1-.5c.8.2 1.6.1 2.3-.2s1.3-.9 1.7-1.6c.1 1.2.5 3.5-1.4 3.3Z"/><path class="cls-19" d="M184.33 4.87c1.7 0 4.9.9 5.5 1.4.6.5 0 1.1-.9.7-.8-.4-2.8-1.2-4.5-1.1-.5 0-1-1-.1-1ZM187.73 10.27c.2.1.4.3.5.4.3.4.5.8.6 1.3 0 .2.1.7-.1.9-.4.3-.7-.4-.9-.7-.7-.8-1.4-1.7-2.3-2.3 0 0 .6-.2.7-.2.2 0 .5.1.7.1.3.2.6.3.8.5Z"/><path class="cls-25" d="M152.33 65.77c-6.6 11.9-11.3 25.2-11.3 25.2 1.9.5 3.3.3 3.9.1.2-.1.4-.2.5-.4.6-1.5 5.6-15.8 7.6-23 .1-.9-.7-1.9-.7-1.9ZM138.83 68.67c.4 10.8 2.1 22.2 2.1 22.2-1.9-.2-3.2-.8-3.7-1.2-.2-.1-.3-.3-.3-.6-.1-1.6-.3-12.6-1.1-19 1.2-1 3-1.4 3-1.4Z"/><path class="cls-21" d="m145.33 92.77-2.8-.3c0-.1.1-.3.1-.4.1-1.1-.6-2-1.5-2.1-1-.1-1.8.7-1.9 1.7v.4l-2.8-.3c-.6-.1-1.1.4-1.1 1l-1.7 16c-.1.6.3 1.2.9 1.2l9.1.9c.6.1 1.1-.4 1.1-1l1.7-16c-.1-.5-.5-1-1.1-1.1Z"/><path class="cls-25" d="m137.03 110.47 6.4.6c.6.1 1.1-.4 1.1-1l1.7-16c0-.3 0-.6-.2-.8l-9 17.2Z"/><path class="cls-6" d="M143.43 95.17c.3 10.4-.9 15.5-2.4 15.6l2.4.2c.2 0 .4 0 .6-.1.3-.2.5-.5.5-.9l1.7-16v-.4c-.1-.4-.4-.7-.9-.8l-2.8-.3c0-.1.1-.3.1-.4.1-.6-.1-1.2-.5-1.6s.4 1.6-.8 2.3c-.6.4 1.9.4 2.1 2.4Z"/><path class="cls-28" d="M140.43 92.47c-.1 0-.2-.1-.2-.2-.7-.6-.4-1.5 0-2 .3-.3.7-.4.9-.4h-.1c-1-.1-1.8.7-1.9 1.7v.4l-2.8-.3c-.6-.1-1.1.4-1.1 1l-1.5 14.1c1.2-6.1 4.8-12.1 6-14 .6.6 1.1 0 .7-.3Z"/><path class="cls-11" d="m25.42 25.93-.64-11.46c-.03-.62-.54-1.1-1.16-1.11l-2.09-.02c-.8 0-1.37.76-1.13 1.53l3.52 11.34c.27.87 1.56.64 1.51-.27ZM15.53 29.17l-7.29-9.81c-.52-.7-1.55-.77-2.16-.14l-1.21 1.24c-.58.6-.53 1.57.12 2.1l9.44 7.67c.71.57 1.65-.33 1.11-1.06ZM10.73 38.85l-8.36-3.27c-.9-.35-1.9.21-2.06 1.17L.03 38.4c-.15.92.55 1.76 1.48 1.78l8.93.17c.86.02 1.1-1.18.3-1.49Z"/><path class="cls-31" d="M97.03 125.77s19.9-2 24.3-2.4c4.5-.4 1.6-8.9-1.7-10s-18-1.2-25.1-.9c-7.1.3-6.3 14.1 2.5 13.3Z"/><path class="cls-22" d="M116.03 112.77c1.7-.6 6.5-.1 8.3.8 1.6.8 1.8 6.1.8 8.9-.2.5-.5.8-1 .9-3.3.6-6.4.8-8.2.5-2-.4-1.6-10.5.1-11.1Z"/><path class="cls-7" d="M139.9 110.29a2.524 2.524 0 0 0-.77-.81l-3.6-2.2c-.6-.4-1.4-.5-2.1-.2-1.8.6-3.7 1.2-5.5 1.8-2 .7-2.7 1.2-3.1 2.2.03.07.07.13.1.2-.07-.03-.14-.06-.2-.1-.3.7-.4 1.6-.5 3-.3-.1-1.9-.3-3-.5-.7-.1-1.4.3-1.6 1-.3 1.1-.4 2.5-.3 3.9.2 1.7.7 3.3 1.9 4 1.8 1.1 6.1 1 8.5.9 1.1-.1 2.1-.4 3.1-.9l5.6-3c.8-.4 1.3-1.2 1.4-2v-.5l.5-5.1c.03-.33.02-.64-.08-.96-.05-.16-.09-.32-.17-.46-.06-.1-.11-.17-.17-.27Z"/><path class="cls-9" d="M139.83 110.17c-.2-.3-.4-.5-.7-.7l-3.6-2.2c-.6-.4-1.4-.5-2.1-.2-1.8.6-3.7 1.2-5.5 1.8-2 .7-2.7 1.2-3.1 2.2 2.3 5.6 9.9 1.7 15-.9Z"/><path class="cls-14" d="M124.03 121.87c-1.5-.7-3.3-1.9-4.7-3.3.2 1.7.7 3.3 1.9 4 1.8 1.1 6.1 1 8.5.9 1.1-.1 2.1-.4 3.1-.9l5.6-3c.8-.4 1.3-1.2 1.4-2v-.5c-4.4 3.7-10.1 5.9-15.8 4.8Z"/><path class="cls-14" d="M124.43 114.97c-.1 1.7 1.2 3.1 2.9 3.1.7 0 1.4 0 2.2-.1-.8.2-2.6-1-3.4-1.4-1.1-.7-1.2-4.27-1.3-5.27-.14.73-.3 1.57-.4 3.67Z"/><path class="cls-7" d="m125.93 109.57 6.5 3.8-5.4-4.1M129.23 108.67l6 3.7-5-4.1M132.03 107.67l5.7 3.5-4.5-3.9"/><path class="cls-14" d="m130.43 120.87-1.1-3-1.7-4.2-.4.8.8 3.7"/><path class="cls-26" d="M102.93 148.77c2.6-1.3 5.5-2.6 8.6-4-4.5-12.7-7-26.5-7-26.5s5.2-10.1 7.6-18.7c1.3-4.7 1.7-9-.2-10.7-7.8-7.1-44.1-22.8-44.1-22.8-3.3-1.4-6.1-1.4-8.5-.2-1.4.7-2.6 1.8-3.6 3.1-5.6 5.2-10.4 10.9-14.3 16.4-1.3-1-3.5-2.6-5.3-4.2 0 0-19.5 13.8-7 23.6.2.1.3.3.5.4-.6 1.3-.9 2-.9 2l6.9 4c5 2.9 11.4 1.6 14.8-3.1 1.1-1.5 2.2-3.1 3.4-4.7 5.2 22.2 10.1 41.9 14.2 52.6 10.9 2 23-1.3 34.9-7.2Z"/><path class="cls-23" d="M111.93 88.77c-7.8-7-44.1-22.7-44.1-22.7-3.3-1.4-6.1-1.4-8.5-.2-1.4.7-2.6 1.8-3.6 3.1-5.6 5.2-10.4 10.9-14.3 16.4 6.9-5.4 13.9-11.4 21.8-15.7 1.9-1 4.1-1.2 6.1-.4 17.6 6.2 35.7 15 42.8 30.3 1.3-4.8 1.7-9-.2-10.8Z"/><path class="cls-23" d="M111.93 88.77c-7.8-7-44.1-22.7-44.1-22.7-3.3-1.4-6.1-1.4-8.5-.2-1.4.7-2.6 1.8-3.6 3.1-5.6 5.2-10.4 10.9-14.3 16.4 6.9-5.4 13.9-11.4 21.8-15.7 1.9-1 4.1-1.2 6.1-.4 17.6 6.2 35.7 15 42.8 30.3 1.3-4.8 1.7-9-.2-10.8Z"/><path class="cls-7" d="m96.13 65.57-2.6 18.3s-13.6-.7-13.6-6.9c0-7.2 4.2-17.6 4.2-17.6l12 6.2Z"/><path class="cls-18" d="m91.73 66.87-7.6-7.5s-4.2 10.4-4.2 17.6c0 3.2 3.7 5 7.2 5.9-1.5-7.5-3-14 4.6-16Z"/><path class="cls-25" d="M94.33 78.37c-4.1 13.2-4.9 23.5-4.9 23.5 2 .1 3.3-.4 3.9-.7.2-.1.4-.3.4-.5.3-1.6 3.2-13.7 4.9-20.1-1.4-1.4-3.6-2-4.3-2.2ZM80.33 71.77c5 12.9 9 29.9 9 29.9-1.9.2-3.4-.2-4-.4-.2-.1-.4-.3-.4-.5-.4-1.4-5-17-7.5-25.2-.6-1.9.7-3.8 2.6-3.9.2 0 .3 0 .3.1Z"/><path class="cls-21" d="m94.13 102.77-2.9.3v-.5c-.1-1.1-1-1.9-1.9-1.8-1 .1-1.7 1.1-1.6 2.1 0 .2 0 .3.1.4l-2.9.3c-.6.1-1 .6-.9 1.2l1.6 16.3c.1.6.6 1.1 1.1 1l9.2-1c.6-.1 1-.6.9-1.2l-1.6-16.3c0-.4-.5-.8-1.1-.8Z"/><path class="cls-25" d="m89.43 122.07 6.5-.7c.6-.1 1-.6.9-1.2l-1.6-16.3c0-.3-.2-.6-.4-.7l-5.4 18.9Z"/><path class="cls-6" d="M92.73 105.57c2.4 10.3 2.2 15.6.8 16l2.4-.3c.2 0 .4-.1.6-.3.3-.2.4-.6.4-1l-1.6-16.3v-.2q0-.1-.1-.2c-.2-.4-.6-.6-1-.6l-2.9.3v-.5c-.1-.6-.4-1.2-.8-1.5s.7 1.5-.4 2.5c-.5.7 1.9.2 2.6 2.1Z"/><path class="cls-28" d="M89.13 103.57c-.1 0-.2-.1-.3-.1-.8-.4-.7-1.4-.4-2 .3-.4.7-.5.9-.5h-.1c-1 .1-1.7 1.1-1.6 2.1 0 .2 0 .3.1.4l-2.9.3c-.6.1-1 .6-.9 1.2l1.4 14.3c-.1-6.3 2.3-13 3.2-15.2.7.3 1.1-.4.6-.5Z"/><path class="cls-9" d="M98.23 33.27c-.5-.2-1.5-.5-2.7-.8 5 9 8.3 19.3 8.2 30 .5-.9.9-2 1.3-3.2 2-7.4-3.9-24.7-6.8-26Z"/><path class="cls-3" d="M77.33 35.47c-2.8 5.8-1 19 3.5 25.4 3.3 4.7 9.8 7.3 13.6 7.1 2.8-.1 6.9-1.2 9.3-5.5.1-10.7-3.2-21.1-8.2-30-5.3-1-15.9-1.7-18.2 3Z"/><path class="cls-18" d="M84.13 54.77v-1.2c.3-4.2 1.4-8.5 2-12.6.1-1 .3-2 .1-3-.1-1-.6-2-1.5-2.5-2.8-1.7-6.5 2.4-7 4.8-.5 2.5.1 5.1.8 7.5-1.7-.7-1-.7-2.4.6-4.1 3.7-2 10.4 2.3 10.9.5.1.9 0 1.2-.1.3.6.7 1.3 1.1 1.8 3.3 4.7 9.8 7.3 13.6 7.1 1.9-.1 4.4-.6 6.5-2.2.4-.4.9-.8 1.3-1.2-3.2 3.6-11.7 1.1-14.9-1.2-2.3-2-3.1-5.6-3.1-8.7Z"/><path class="cls-32" d="M80.53 48.67c5.6-1.2 6.7-16.9-3.8-14.6-4.9 1.2-4.5 16.4 3.8 14.6Z"/><path d="M102.73 22.27c1.6 1.9-.2 6.9-13.6 6-6-.4-10.4.4-13.2 2-2.1 1.2-3.3 2.9-3.5 4.8-.7 6.3 7.5 3.9 11.5 3.2 3.9-.7 8.1-.6 17.5-.4h.5c9.8.3 9-12.2.8-15.6Z" style="fill:#8a353c"/><path class="cls-32" d="M75.93 30.27c-2.1 1.2-3.3 2.9-3.5 4.8-.7 6.3 7.5 3.9 11.5 3.2 3.9-.7 8.1-.6 17.5-.4 2-.4 5-4.1 2.8-9.2-6 6.1-19.3 5.4-28.3 1.6Z"/><path class="cls-18" d="M78.63 59.27c2.2.3 3.4-1.5 3.7-3.7-.3-3.1-2.3-6.5-6.2-6.7-2.4-.1-3.7 1.5-3.9 3.5.2 3 2.4 6.4 6.4 6.9Z"/><path class="cls-3" d="M76.03 48.87c2 .1 3.6 1.1 5.4 1.9-.3-.1-.7-.9-.9-1.1-.4-.4-.8-.8-1.2-1.1-.9-.7-2.1-1.1-3.2-1.1-3-.1-4.2 2.3-3.9 5 .2-2.2 1.4-3.8 3.8-3.6Z"/><path class="cls-24" d="M90.53 48.87v1.1c0 .3-.1.5-.3.6-.2.1-.4-.1-.5-.4-.1-.2-.1-.5-.2-.7-.2-1.1-.4-2.1-.6-3.2-.1-.7-.1-1.1-.1-1.6 0-.3 0-.5.2-.6s.3-.1.5.1c.1.1.2.2.2.3.1.3.2.5.3.8.2 1.2.4 2.4.5 3.6ZM99.63 44.57c.3.8.6 1.6.8 2.5.1.7.3 1.4.4 2.1 0 .3 0 .6-.2.8-.3 0-.5-.2-.6-.5s-.2-.7-.3-1c-.3-1.1-.6-2.3-.8-3.5 0-.2-.1-.4-.1-.6-.4-1.3.5-.6.8.2Z"/><path d="M90.33 50.77c-.3 0-.6-.1-.9-.1h-1.2c-.3 0-.6.1-.9.2-.3.1-.3.5 0 .7s.7.1 1 .1c.4 0 .7 0 1.1-.1.4 0 .7-.1 1-.1s.7 0 .9-.3c.1-.1 0-.3-.1-.4-.2-.1-.5-.1-.7-.2q-.1.2-.2.2Z" style="fill:#f0a98d"/><path class="cls-31" d="M93.93 152.67c-2.3-3.6-4.6-7.4-5.1-8.1-3.7-5.4-7.3-10.8-10.3-16.6-6.9-13-8.6-26.6-11.9-40.7-.1-.3-.9-2.4-1-2.7-4.1 5-7.4 11.8-12.6 15.5 5.4 23.5 10.2 44.8 14.7 55.9 8.3 1.5 17.2 0 26.2-3.3Z"/><path class="cls-31" d="M30.63 103.07c-1.3 2.5-5.9 2.5-5.9 2.5l10.9 5.6c5 2.9 11.4 1.6 14.8-3.1 3.9-5.3 8.8-12 12.1-16.3 1.6-2.1 2.6-4.7 3.2-7.4-11.6 9.2-20.3 26.8-35.1 18.7Z"/><path class="cls-22" d="M29.23 74.57c2.7 2 4 3.4 6.2 6 .4.4.6 1 .7 1.6 3.2 9.5.8 27.7-13.1 23.4-3.5-1.1-8.5-3.9-8.3-8 .1-3.1.2-6.1.6-9.1.3-2.9.7-5.9 1.4-8.8.4-1.5.7-4 2-5.1 2.9-2.6 6.7-2.9 10.5 0Z"/><path class="cls-3" d="M34.63 87.37c0-1-.1-2-.4-2.8-.4-1.3-.8-2.7-.9-4-.2-2.3.2-4.7.4-7 .2-2 .3-4.4-.7-6.1-.9-1.7-1.8-3-2.2-5.1-.8-4.2-3.2-10.5-1.1-15.7 1.5-3.9 2.5-8.1-.1-10.2-.3-.2-.6-.4-1-.6-.8-.4-1.9-.6-3.2-.7-6.7-.3-10.5 12.3-9 23.7.3 2.2-1.1 4.1-3.3 4.6-2.5.6-4.3.4-5.8 1.2-1 .6-2.1 2.1-2.8 3.3-1.3 2.4-1.2 5.3.8 8.3-1.7.6-2.9 1.9-3.6 3.4-1.9 4-1.6 7.6 1.9 9.7-.1 0-2.1 3.3-1.8 6.6.3 3.1 1.9 10.8 10.9 10.4 7.3-.3 16.5-2.1 19.6-9.7 1.4-2.6 2.4-6.2 2.3-9.3Z"/><path class="cls-9" d="M34.83 87.07c-.1-1-1.3-5.2-1.4-6.5-.2-2.3.2-4.7.4-7 .2-2 .3-4.4-.7-6.1-.9-1.7-1.8-3-2.2-5.1-.8-4.2-3.2-10.5-1.1-15.7 1.5-3.9 2.5-8.1-.1-10.2 2.1 4.8-8.5 12 .5 31.3.8 1.7 1 5.4.7 7.3-1.5 9.2 3.2 13.6 2.6 19.7.7-2.1 1.5-4.9 1.3-7.7ZM20.43 67.57l-13-3c-1.5 1-2.1 2.1-2.8 3.3 5.6 2 10.3 1.1 15.8-.3ZM19.13 97.59l-4.81.89 1.9.1-1.9-.1-1.2.2 1.2-.2-7.6-.3c.2.1.4.1.6.1-.7 1.2.2 2.8 1.6 3 4.4.8 6.41-.09 10.21-3.69ZM21.43 78.97l-16.4-2.5c-1.4.7-2.5 1.8-3.1 3.2 6.5 1.8 13.5 4.8 19.5-.7Z"/><path class="cls-14" d="M5.83 76.47c5.1.7 11 1.8 16.1.5 2.1-.6 4.6-1.8 4.1-4.3-.2-1.1-.8-2.1-1.6-2.9-.7-.7-2.9-1.7-3.7-2 0 3.5-.7 7.4-5.3 8.4-3.2.7-6.4.2-9.6.3ZM3.93 89.47c4.6.4 9.5.7 14.1-.3 2.3-.5 7.8-2.1 8.5-4.6.3-1.2-.1-2.5-.9-3.4s-2-1.5-3.2-1.7c-.5 4.2-2.4 6.2-6.3 7.6-4 1.3-8 2.1-12.2 2.4Z"/><path class="cls-14" d="M6.43 97.87c7.3 1.8 16.6-.6 18.9-4.5.8-1.3.4-2.4-.4-3.7-.9-1.4-3.1-2.1-5.5-1.7.4 3.1-.6 6.8-3.7 7.9-3 1.2-6.1 1.7-9.3 2Z"/><path class="cls-14" d="M8.28 105.78c.24.03 2.24 1.11 4.95 1.29 1.3.1 2.6-.2 3.9-.5 3.2-.8 9.4-3.9 5.6-7.5-1.1-1.1-2.7-1.6-4.2-1.9.1 2 .1 6.1-1.8 7.4-1.5 1.3-6.66 1.44-8.45 1.21Z"/><path class="cls-31" d="M104.53 118.17c.5-14 2.1-14 1.1-20.6s-2.9-6.9-2.9.8 1.8 19.8 1.8 19.8ZM41.43 85.27c5.4 4.2 8.6 7.3 8.6 7.3l.1-.9c.3-2.1-1-4.1-3.1-4.7l-5.6-1.7Z"/><path class="cls-8" d="M89.13 54.27s-.3 4.1 3.1 4.2c3.8.1 3.6-3.8 3.6-3.8"/><path class="cls-4" d="M93.43 58.77c.6-.2 1.2-.5 1.6-.9 1.2-1.2 1.1-3.1 1.1-3.2 0-.2-.2-.4-.4-.4s-.4.2-.4.4c0 0 .1 1.6-.9 2.6-.5.5-1.3.8-2.3.8-.8 0-1.4-.3-1.9-.8-1-1.1-.8-3-.8-3 0-.2-.1-.4-.4-.4-.2 0-.4.1-.4.4 0 .1-.2 2.2 1 3.6.6.7 1.4 1 2.4 1 .6 0 1 0 1.4-.1Z"/><path class="cls-4" d="M98.33 55.07c.2 0 .3-.2.3-.3l.6-5.2c0-.1 0-.3-.2-.4-.1-.1-.3-.1-.4 0l-1.9 1c-.2.1-.3.3-.2.5.1.2.3.3.5.2l1.2-.6-.4 4-8.7-.4c-.2 0-.4.2-.4.4s.2.4.4.4l9.1.4h.1Z"/><path class="cls-9" d="M7.63 91.77c6.5 1 11.3-2.6 11.3-2.6l-10.4.9"/></svg>